<svg version="1.1" xmlns="http://www.w3.org/2000/svg" width="264" height="191">
<path d="M0 0 C87.12 0 174.24 0 264 0 C264 63.03 264 126.06 264 191 C176.88 191 89.76 191 0 191 C0 127.97 0 64.94 0 0 Z " fill="#FEFEFE" transform="translate(0,0)" data-index="0"></path>
<path d="M0 0 C3.92101329 4.46559847 5.3206877 9.12072549 5 15 C4.046875 17.1015625 4.046875 17.1015625 3 19 C2.62331656 20.65740715 2.27942455 22.32345271 2 24 C3.32 24 4.64 24 6 24 C11.55751674 39.20874001 12.32846308 54.85318672 6 70 C5.63777344 70.87914063 5.27554688 71.75828125 4.90234375 72.6640625 C-1.50698157 86.69939862 -12.20656928 95.72409907 -26.1015625 101.9921875 C-33.0876184 104.42130128 -39.87047902 105.39025167 -47.25 105.375 C-48.07411377 105.37338867 -48.89822754 105.37177734 -49.74731445 105.37011719 C-58.54153986 105.19538046 -66.36527538 103.17592732 -74 98.75 C-77.60856786 96.74609316 -80.53845329 96.90106757 -84.625 97.0625 C-91.55758331 97.29546051 -91.55758331 97.29546051 -94.6875 94.75 C-98.58680546 90.1129881 -99.2199913 87.46600916 -99 81.375 C-98.83264447 77.99449085 -98.83264447 77.99449085 -99 75 C-99.66 74.34 -100.32 73.68 -101 73 C-101.125 70.375 -101.125 70.375 -101 68 C-100.67 68.99 -100.34 69.98 -100 71 C-97.69 69.35 -95.38 67.7 -93 66 C-93.2165625 65.28457031 -93.433125 64.56914063 -93.65625 63.83203125 C-97.47407159 50.16917899 -97.0356012 37.9884254 -90.57421875 25.171875 C-83.30556824 12.6254705 -73.49434999 4.51862145 -59.66796875 -0.1171875 C-48.50581854 -2.80371141 -37.52588375 -1.28779188 -27 3 C-25.90300781 3.43957031 -24.80601562 3.87914062 -23.67578125 4.33203125 C-21 6 -21 6 -20.30078125 8.3046875 C-20.30464844 9.15289062 -20.30851562 10.00109375 -20.3125 10.875 C-20.1359435 15.04538623 -19.77667604 17.6893478 -17 21 C-15.515 21.495 -15.515 21.495 -14 22 C-14.495 20.205625 -14.495 20.205625 -15 18.375 C-15.89075113 14.83081417 -16.17063178 11.66858329 -16 8 C-15.66781808 4.99740483 -15.66781808 4.99740483 -17.5 3.3125 C-17.995 2.879375 -18.49 2.44625 -19 2 C-14.31389422 -3.38902165 -6.01012888 -3.57359015 0 0 Z " fill="#FCFCFD" transform="translate(179,10)" data-index="1"></path>
<path d="M0 0 C5.55751674 15.20874001 6.32846308 30.85318672 0 46 C-0.54333984 47.31871094 -0.54333984 47.31871094 -1.09765625 48.6640625 C-7.50698157 62.69939862 -18.20656928 71.72409907 -32.1015625 77.9921875 C-39.0876184 80.42130128 -45.87047902 81.39025167 -53.25 81.375 C-54.07411377 81.37338867 -54.89822754 81.37177734 -55.74731445 81.37011719 C-64.54153986 81.19538046 -72.36527538 79.17592732 -80 74.75 C-83.60856786 72.74609316 -86.53845329 72.90106757 -90.625 73.0625 C-97.55758331 73.29546051 -97.55758331 73.29546051 -100.6875 70.75 C-104.33712175 66.40990927 -105.48015826 63.88966555 -105.31640625 58.02734375 C-104.62899904 53.62284569 -102.06488762 50.88740635 -98.75 48.125 C-95.0550297 46.61342124 -91.93822962 46.41566918 -88 47 C-83.87614073 48.78075741 -81.20355603 51.08256705 -79 55 C-78.67197024 58.6916365 -78.7670147 62.30459423 -79 66 C-76.0124753 67.04010119 -73.01053302 68.02857801 -70 69 C-69.13375 69.28617187 -68.2675 69.57234375 -67.375 69.8671875 C-54.64179628 73.75377585 -43.04223678 72.38184693 -31 67 C-20.15727903 60.82859692 -12.79276889 52.45238409 -8 41 C-7.44505859 39.68128906 -7.44505859 39.68128906 -6.87890625 38.3359375 C-5.67569866 33.76909626 -5.70987133 29.45174237 -5.75 24.75 C-5.74226563 23.85925781 -5.73453125 22.96851562 -5.7265625 22.05078125 C-5.74463684 15.82417251 -6.56552905 10.05483981 -8 4 C-2.25 0 -2.25 0 0 0 Z " fill="#6721F7" transform="translate(185,34)" data-index="2"></path>
<path d="M0 0 C6.0282061 3.27817855 10.78500084 7.43956892 13.2109375 13.96875 C14.23770638 20.9716346 14.29336422 28.08250142 10.55078125 34.2890625 C7.254666 38.42121865 3.17722921 42.04716363 -1.7890625 43.96875 C-5.03125 44.26953125 -5.03125 44.26953125 -8.6640625 44.28125 C-9.85773438 44.29800781 -11.05140625 44.31476563 -12.28125 44.33203125 C-18.6646513 43.67094403 -22.66726411 40.74135866 -26.7890625 35.96875 C-30.83732176 29.92353064 -32.89278604 24.30600306 -31.7890625 16.96875 C-29.48301271 10.43825556 -26.52737877 5.83333035 -20.7890625 1.96875 C-19.9228125 1.370625 -19.0565625 0.7725 -18.1640625 0.15625 C-12.11443569 -1.9723224 -6.06914259 -2.24405272 0 0 Z " fill="#5D85FB" transform="translate(140.7890625,36.03125)" data-index="3"></path>
<path d="M0 0 C0.495 0.99 0.495 0.99 1 2 C1.33 1.34 1.66 0.68 2 0 C2.66 0 3.32 0 4 0 C4 0.99 4 1.98 4 3 C4.78375 2.95875 5.5675 2.9175 6.375 2.875 C9 3 9 3 11 5 C11.69658363 6.65438613 12.36096883 8.32254318 13 10 C13.65213539 11.34050052 14.31379969 12.67661368 15 14 C18.62180026 11.30599413 18.62180026 11.30599413 21.3125 7.75 C23 6 23 6 24.9609375 5.75 C26.97568248 5.75 28.98957272 5.8681687 31 6 C25.52878966 13.57696827 25.52878966 13.57696827 22.1875 16.25 C19.58771609 19.51829977 19.61873899 21.07356368 19.36328125 25.171875 C19.29020752 26.26081055 19.21713379 27.34974609 19.1418457 28.47167969 C19.09503662 29.30602539 19.04822754 30.14037109 19 31 C11.40130429 31.12679156 3.80288142 31.21434844 -3.79663086 31.2746582 C-6.3816955 31.29980001 -8.96668907 31.33391815 -11.55151367 31.37719727 C-15.26759374 31.43785922 -18.98273386 31.46621419 -22.69921875 31.48828125 C-23.85459641 31.51408768 -25.00997406 31.5398941 -26.20036316 31.56648254 C-35.14318968 31.56960753 -35.14318968 31.56960753 -38.26879883 28.65698242 C-40 26 -40 26 -40 23 C-38.00045254 22.95745644 -35.99958364 22.95919217 -34 23 C-33.67 23.33 -33.34 23.66 -33 24 C-31.65732587 24.08631874 -30.31025678 24.10706473 -28.96484375 24.09765625 C-28.15595703 24.09443359 -27.34707031 24.09121094 -26.51367188 24.08789062 C-25.2384668 24.07532227 -25.2384668 24.07532227 -23.9375 24.0625 C-23.08349609 24.05798828 -22.22949219 24.05347656 -21.34960938 24.04882812 C-19.23304337 24.03700373 -17.11651315 24.01906769 -15 24 C-15 23.34 -15 22.68 -15 22 C-15.57967529 21.99589111 -16.15935059 21.99178223 -16.7565918 21.98754883 C-19.40124109 21.95450723 -22.04361839 21.88385736 -24.6875 21.8125 C-25.59951172 21.80669922 -26.51152344 21.80089844 -27.45117188 21.79492188 C-32.05470431 21.64426081 -34.34754829 21.48486437 -38.1328125 18.671875 C-40 16 -40 16 -40.1875 12.4375 C-38.98253918 8.94945552 -38.09221906 7.71424328 -34.99926758 5.79174805 C-30.77236606 4.11781453 -26.22368961 4.55643487 -21.75 4.6875 C-20.74453125 4.69716797 -19.7390625 4.70683594 -18.703125 4.71679688 C-11.33874393 4.83062803 -11.33874393 4.83062803 -9 6 C-9 5.34 -9 4.68 -9 4 C-8.01 3.67 -7.02 3.34 -6 3 C-5.505 2.484375 -5.01 1.96875 -4.5 1.4375 C-3 0 -3 0 0 0 Z " fill="#EDE4F6" transform="translate(73,160)" data-index="4"></path>
<path d="M0 0 C0.80759766 -0.020625 1.61519531 -0.04125 2.44726562 -0.0625 C7.25112811 -0.09397494 10.23587612 0.24063024 14.1875 3.25 C15.1775 3.91 16.1675 4.57 17.1875 5.25 C17.5175 3.6 17.8475 1.95 18.1875 0.25 C28.7475 0.25 39.3075 0.25 50.1875 0.25 C50.1875 2.23 50.1875 4.21 50.1875 6.25 C45.8975 6.25 41.6075 6.25 37.1875 6.25 C37.1875 12.52 37.1875 18.79 37.1875 25.25 C30.88874441 25.37384123 24.59070152 25.46445478 18.29101562 25.5246582 C16.14928844 25.54976163 14.00764659 25.58385168 11.86621094 25.62719727 C8.7829887 25.6880315 5.70090157 25.71625181 2.6171875 25.73828125 C1.18715897 25.77699089 1.18715897 25.77699089 -0.27175903 25.81648254 C-4.74876384 25.81836017 -7.83643961 25.72665372 -11.40185547 22.84448242 C-15.3179402 18.62975359 -15.14217683 15.61774875 -15.10546875 10.0234375 C-14.68199404 6.01454356 -13.47637706 4.22727436 -10.8125 1.25 C-7.44936091 -0.43156955 -3.69483413 0.02325623 0 0 Z " fill="#6C27F7" transform="translate(116.8125,165.75)" data-index="5"></path>
<path d="M0 0 C1.03125 0.7425 2.0625 1.485 3.125 2.25 C2.795 3.9 2.465 5.55 2.125 7.25 C3.445 7.91 4.765 8.57 6.125 9.25 C5.795 9.91 5.465 10.57 5.125 11.25 C4.93675219 15.39145176 5.38514974 19.18082355 6.125 23.25 C6.125 23.91 6.125 24.57 6.125 25.25 C3.31457887 24.95926678 2.29152718 24.43436938 0.375 22.3125 C-1.40450996 17.95270059 -1.11870596 13.89846562 -0.875 9.25 C-1.74382812 8.96382812 -2.61265625 8.67765625 -3.5078125 8.3828125 C-5.59682695 7.68001182 -7.6773017 6.95050318 -9.7421875 6.1796875 C-22.60361802 1.66983524 -34.16906059 1.67796176 -46.80859375 6.75390625 C-50.97711295 8.7877188 -54.39875291 11.2092559 -57.875 14.25 C-59.10863281 15.17232422 -59.10863281 15.17232422 -60.3671875 16.11328125 C-68.19589108 22.78353181 -73.26330154 34.18448701 -74.875 44.25 C-75.51762521 53.34561834 -74.2841606 61.48811233 -71.875 70.25 C-77.625 74.25 -77.625 74.25 -79.875 74.25 C-85.60011989 62.05300545 -85.91932101 45.06163732 -82.03515625 32.14453125 C-75.60243255 16.0952105 -64.84342105 4.24353036 -48.875 -2.75 C-32.8536066 -8.73267222 -14.94999036 -9.22222604 0 0 Z " fill="#2BE1F1" transform="translate(158.875,6.75)" data-index="6"></path>
<path d="M0 0 C1.27617188 -0.03673828 1.27617188 -0.03673828 2.578125 -0.07421875 C6.77686436 -0.09383903 9.02937575 0.00292624 12.6640625 2.2734375 C16.5756401 6.46552664 16.00881267 10.6936325 15.984375 16.22265625 C15.63201397 19.31347529 15.41028968 20.4837717 13.25 22.625 C9.4892036 25.1321976 7.6746428 25.49631391 3.1796875 25.47265625 C1.56513672 25.46782227 1.56513672 25.46782227 -0.08203125 25.46289062 C-1.20996094 25.45451172 -2.33789062 25.44613281 -3.5 25.4375 C-4.63566406 25.43298828 -5.77132813 25.42847656 -6.94140625 25.42382812 C-9.75265638 25.41201615 -12.5638023 25.39554507 -15.375 25.375 C-15.45620751 22.47859882 -15.51559421 19.58449088 -15.5625 16.6875 C-15.58763672 15.87087891 -15.61277344 15.05425781 -15.63867188 14.21289062 C-15.69673421 9.4324247 -15.53604605 6.22867618 -12.375 2.375 C-8.23168944 -0.38720704 -4.86905105 0.00731089 0 0 Z " fill="#601BF4" transform="translate(15.375,165.625)" data-index="7"></path>
<path d="M0 0 C4.12385927 1.78075741 6.79644397 4.08256705 9 8 C9.32802976 11.6916365 9.2329853 15.30459423 9 19 C14.30094216 20.80304155 19.60308488 22.50723624 25 24 C23 27 23 27 21 28 C21.66 28 22.32 28 23 28 C22.505 30.475 22.505 30.475 22 33 C17.11660299 31.67908114 12.54296967 30.43324299 8.1875 27.8125 C4.4900454 25.79433741 1.54906299 25.89232303 -2.625 26.0625 C-9.55758331 26.29546051 -9.55758331 26.29546051 -12.6875 23.75 C-16.33712175 19.40990927 -17.48015826 16.88966555 -17.31640625 11.02734375 C-16.62899904 6.62284569 -14.06488762 3.88740635 -10.75 1.125 C-7.0550297 -0.38657876 -3.93822962 -0.58433082 0 0 Z " fill="#861AF8" transform="translate(97,81)" data-index="8"></path>
<path d="M0 0 C10.56 0 21.12 0 32 0 C32 1.98 32 3.96 32 6 C27.71 6 23.42 6 19 6 C19 12.27 19 18.54 19 25 C9.43 25 -0.14 25 -10 25 C-9.01 24.34 -8.02 23.68 -7 23 C-4.71930676 21.38646723 -4.71930676 21.38646723 -3 19 C-2.51675794 15.4964365 -2.51675794 15.4964365 -2.75 11.75 C-2.80414063 9.85507813 -2.80414063 9.85507813 -2.859375 7.921875 C-2.90578125 6.95765625 -2.9521875 5.9934375 -3 5 C-2.34 5 -1.68 5 -1 5 C-0.67 3.35 -0.34 1.7 0 0 Z " fill="#F8F4FC" transform="translate(135,166)" data-index="9"></path>
<path d="M0 0 C1.65 0 3.3 0 5 0 C5 2.97 5 5.94 5 9 C11.6 9 18.2 9 25 9 C25 6.03 25 3.06 25 0 C26.98 0 28.96 0 31 0 C31 8.25 31 16.5 31 25 C20.77 25 10.54 25 0 25 C0 16.75 0 8.5 0 0 Z " fill="#793BF6" transform="translate(233,166)" data-index="10"></path>
<path d="M0 0 C9.9 0 19.8 0 30 0 C30 1.98 30 3.96 30 6 C22.08 6 14.16 6 6 6 C6 7.32 6 8.64 6 10 C13.59 10 21.18 10 29 10 C29 11.65 29 13.3 29 15 C21.41 15 13.82 15 6 15 C6 16.32 6 17.64 6 19 C13.92 19 21.84 19 30 19 C30 20.98 30 22.96 30 25 C20.1 25 10.2 25 0 25 C0 16.75 0 8.5 0 0 Z " fill="#7432F8" transform="translate(168,166)" data-index="11"></path>
<path d="M0 0 C1.44246094 -0.00580078 1.44246094 -0.00580078 2.9140625 -0.01171875 C4.41066406 0.00568359 4.41066406 0.00568359 5.9375 0.0234375 C6.93523438 0.01183594 7.93296875 0.00023437 8.9609375 -0.01171875 C9.92257813 -0.00785156 10.88421875 -0.00398437 11.875 0 C13.18791016 0.00507568 13.18791016 0.00507568 14.52734375 0.01025391 C17.47065539 0.48430835 18.85930824 1.26901422 20.9375 3.3984375 C20.9375 4.7184375 20.9375 6.0384375 20.9375 7.3984375 C12.6875 7.0684375 4.4375 6.7384375 -4.0625 6.3984375 C-3.7325 7.3884375 -3.4025 8.3784375 -3.0625 9.3984375 C-2.44205811 9.41302002 -1.82161621 9.42760254 -1.18237305 9.44262695 C1.62904633 9.51710338 4.43927749 9.61376314 7.25 9.7109375 C8.22646484 9.73349609 9.20292969 9.75605469 10.20898438 9.77929688 C11.14677734 9.81474609 12.08457031 9.85019531 13.05078125 9.88671875 C13.91485596 9.91290283 14.77893066 9.93908691 15.66918945 9.96606445 C18.4142892 10.48932047 19.32120146 11.13832357 20.9375 13.3984375 C21.64529977 18.97236067 21.64529977 18.97236067 20.9375 21.3984375 C18.75982578 23.97535199 16.99326473 25.21713211 13.63867188 25.79321289 C10.8934112 25.97391685 8.18830067 25.99309954 5.4375 25.9609375 C4.03177734 25.99670898 4.03177734 25.99670898 2.59765625 26.03320312 C-2.09686682 26.02321478 -4.36211242 25.91939411 -8.21875 23.05078125 C-10.0625 20.3984375 -10.0625 20.3984375 -10.0625 17.3984375 C-8.06295254 17.35589394 -6.06208364 17.35762967 -4.0625 17.3984375 C-3.7325 17.7284375 -3.4025 18.0584375 -3.0625 18.3984375 C-1.71982587 18.48475624 -0.37275678 18.50550223 0.97265625 18.49609375 C1.78154297 18.49287109 2.59042969 18.48964844 3.42382812 18.48632812 C4.6990332 18.47375977 4.6990332 18.47375977 6 18.4609375 C6.85400391 18.45642578 7.70800781 18.45191406 8.58789062 18.44726562 C10.70445663 18.43544123 12.82098685 18.41750519 14.9375 18.3984375 C14.9375 17.7384375 14.9375 17.0784375 14.9375 16.3984375 C14.35782471 16.39432861 13.77814941 16.39021973 13.1809082 16.38598633 C10.53625891 16.35294473 7.89388161 16.28229486 5.25 16.2109375 C4.33798828 16.20513672 3.42597656 16.19933594 2.48632812 16.19335938 C-2.11671051 16.04271447 -4.41301544 15.87908839 -8.203125 13.07421875 C-10.0625 10.3984375 -10.0625 10.3984375 -10.125 6.7734375 C-8.40681511 1.31567372 -5.54139 0.0214229 0 0 Z " fill="#6621F7" transform="translate(43.0625,165.6015625)" data-index="12"></path>
<path d="M0 0 C3.49623798 3.98182659 4.79258947 7.63484056 5.16796875 12.8203125 C4.83143748 17.18739264 2.30031067 19.83027608 -0.828125 22.64453125 C-3.44651858 24.27867257 -4.9999163 24.37255066 -8.0625 24.3125 C-9.34833984 24.30669922 -9.34833984 24.30669922 -10.66015625 24.30078125 C-13 24 -13 24 -16 22 C-15.34 22 -14.68 22 -14 22 C-14.33 20.80375 -14.66 19.6075 -15 18.375 C-15.89075113 14.83081417 -16.17063178 11.66858329 -16 8 C-15.66781808 4.99740483 -15.66781808 4.99740483 -17.5 3.3125 C-17.995 2.879375 -18.49 2.44625 -19 2 C-14.31389422 -3.38902165 -6.01012888 -3.57359015 0 0 Z " fill="#52D7F3" transform="translate(179,10)" data-index="13"></path>
<path d="M0 0 C5.63723829 15.42690656 6.05719405 30.62591712 0 46 C-0.33 46.99 -0.66 47.98 -1 49 C-3.3125 49.6875 -3.3125 49.6875 -6 50 C-7.875 48.9375 -7.875 48.9375 -9 47 C-8.79125267 43.86879007 -8.14051298 41.34730566 -6.96484375 38.44140625 C-5.67060777 33.82512325 -5.70929058 29.51978761 -5.75 24.75 C-5.74226562 23.85925781 -5.73453125 22.96851562 -5.7265625 22.05078125 C-5.74463684 15.82417251 -6.56552905 10.05483981 -8 4 C-2.25 0 -2.25 0 0 0 Z " fill="#62C2F9" transform="translate(185,34)" data-index="14"></path>
<path d="M0 0 C0.80759766 -0.020625 1.61519531 -0.04125 2.44726562 -0.0625 C7.14227517 -0.09326173 10.45001075 0.06648643 14.1875 3.25 C15 6.4375 15 6.4375 15.1875 9.25 C13.5375 9.25 11.8875 9.25 10.1875 9.25 C9.8575 8.26 9.5275 7.27 9.1875 6.25 C6.37461295 6.39019692 3.56233115 6.53687955 0.75 6.6875 C-0.05244141 6.72681641 -0.85488281 6.76613281 -1.68164062 6.80664062 C-5.56489561 6.6554296 -5.56489561 6.6554296 -8.8125 8.25 C-9.18302339 13.42735677 -9.18302339 13.42735677 -7.8125 18.25 C-5.18688891 18.33074203 -2.56374324 18.3903623 0.0625 18.4375 C0.80886719 18.46263672 1.55523437 18.48777344 2.32421875 18.51367188 C4.74971828 18.5798764 4.74971828 18.5798764 8.1875 18.25 C8.8475 17.26 9.5075 16.27 10.1875 15.25 C13.3125 15.0625 13.3125 15.0625 16.1875 15.25 C15.61281075 19.12915244 13.80865553 21.39756605 11.1875 24.25 C7.55195419 25.4618486 4.16342248 25.5109802 0.375 25.5625 C-0.32431641 25.59150391 -1.02363281 25.62050781 -1.74414062 25.65039062 C-6.87653784 25.71280518 -9.7357141 24.61506524 -13.8125 21.25 C-15.21115903 18.45268195 -15.05787267 16.05715441 -15.125 12.9375 C-15.16238281 11.80699219 -15.19976562 10.67648438 -15.23828125 9.51171875 C-14.72855818 5.60695943 -13.54040817 4.02851871 -10.8125 1.25 C-7.44936091 -0.43156955 -3.69483413 0.02325623 0 0 Z " fill="#641EF6" transform="translate(214.8125,165.75)" data-index="15"></path>
<path d="M0 0 C0.33 1.32 0.66 2.64 1 4 C1.66 4 2.32 4 3 4 C3.33 3.01 3.66 2.02 4 1 C4 2.32 4 3.64 4 5 C3.34 5 2.68 5 2 5 C2 5.66 2 6.32 2 7 C3.32 7 4.64 7 6 7 C5.79503906 7.66386719 5.59007813 8.32773437 5.37890625 9.01171875 C5.10949219 9.89472656 4.84007813 10.77773438 4.5625 11.6875 C4.29566406 12.55761719 4.02882813 13.42773438 3.75390625 14.32421875 C0.513881 25.82379025 1.86892493 36.61257817 5 48 C-0.75 52 -0.75 52 -3 52 C-8.89534877 39.44034392 -8.82074419 22.71109984 -4.93359375 9.46875 C-3.62938097 6.01995303 -2.02812284 3.0771519 0 0 Z " fill="#6A42F7" transform="translate(82,29)" data-index="16"></path>
<path d="M0 0 C1.32 0 2.64 0 4 0 C4 0.66 4 1.32 4 2 C4.99 2.33 5.98 2.66 7 3 C7.66 2.01 8.32 1.02 9 0 C9 8.25 9 16.5 9 25 C5.7 25 2.4 25 -1 25 C0.1446875 24.195625 0.1446875 24.195625 1.3125 23.375 C4.22864474 20.79794186 5.4705622 18.54185596 7 15 C5.02 15 3.04 15 1 15 C0.34 16.32 -0.32 17.64 -1 19 C-3.62561109 19.08074203 -6.24875676 19.1403623 -8.875 19.1875 C-9.99455078 19.22520508 -9.99455078 19.22520508 -11.13671875 19.26367188 C-13.3046875 19.29296875 -13.3046875 19.29296875 -17 19 C-19.71232939 14.93150591 -19.30699887 12.83523216 -19 8 C-17 6 -17 6 -13.0859375 5.8046875 C-11.51550649 5.81799624 -9.94513779 5.84186398 -8.375 5.875 C-7.57320312 5.88402344 -6.77140625 5.89304688 -5.9453125 5.90234375 C-3.96341477 5.92593777 -1.98167019 5.96180935 0 6 C0.33 6.66 0.66 7.32 1 8 C3.52733235 8.65555119 3.52733235 8.65555119 6 9 C5.89830839 6.05272465 5.89830839 6.05272465 5 3 C2.53744315 1.54708727 2.53744315 1.54708727 0 1 C0 0.67 0 0.34 0 0 Z " fill="#FBF9FB" transform="translate(224,166)" data-index="17"></path>
<path d="M0 0 C1.03125 0.7425 2.0625 1.485 3.125 2.25 C2.795 3.9 2.465 5.55 2.125 7.25 C3.445 7.91 4.765 8.57 6.125 9.25 C5.795 9.91 5.465 10.57 5.125 11.25 C4.93675219 15.39145176 5.38514974 19.18082355 6.125 23.25 C6.125 23.91 6.125 24.57 6.125 25.25 C3.31457887 24.95926678 2.29152718 24.43436938 0.375 22.3125 C-1.40450996 17.95270059 -1.11870596 13.89846562 -0.875 9.25 C-1.65875 9.0025 -2.4425 8.755 -3.25 8.5 C-7.85901329 6.91068507 -12.36047716 5.08792827 -16.875 3.25 C-16.215 2.92 -15.555 2.59 -14.875 2.25 C-14.875 1.26 -14.875 0.27 -14.875 -0.75 C-17.515 -0.75 -20.155 -0.75 -22.875 -0.75 C-22.875 -1.41 -22.875 -2.07 -22.875 -2.75 C-23.61105469 -2.72679687 -24.34710938 -2.70359375 -25.10546875 -2.6796875 C-26.08128906 -2.66164063 -27.05710938 -2.64359375 -28.0625 -2.625 C-29.02542969 -2.60179687 -29.98835937 -2.57859375 -30.98046875 -2.5546875 C-34.00312778 -2.7586456 -36.14269985 -3.48125368 -38.875 -4.75 C-38.875 -5.08 -38.875 -5.41 -38.875 -5.75 C-25.8332104 -8.78240098 -11.46189775 -7.0705204 0 0 Z " fill="#46D6EF" transform="translate(158.875,6.75)" data-index="18"></path>
<path d="M0 0 C10.56 0 21.12 0 32 0 C32 1.98 32 3.96 32 6 C27.71 6 23.42 6 19 6 C19 12.27 19 18.54 19 25 C17.02 25 15.04 25 13 25 C13 18.4 13 11.8 13 5 C8.71 5 4.42 5 0 5 C0 3.35 0 1.7 0 0 Z " fill="#5C15F9" transform="translate(135,166)" data-index="19"></path>
<path d="M0 0 C1.32 1.32 2.64 2.64 4 4 C3.67 4.66 3.34 5.32 3 6 C2.82568154 8.12039826 2.73290929 10.24793308 2.6875 12.375 C2.65011719 13.51710937 2.61273438 14.65921875 2.57421875 15.8359375 C3.08499102 19.63158465 4.08290997 20.6295261 7 23 C7.66 23.66 8.32 24.32 9 25 C6.03 25 3.06 25 0 25 C0 23.02 0 21.04 0 19 C-7.92 19 -15.84 19 -24 19 C-24 17.68 -24 16.36 -24 15 C-16.41 15 -8.82 15 -1 15 C-1 13.35 -1 11.7 -1 10 C-8.59 10 -16.18 10 -24 10 C-24 8.68 -24 7.36 -24 6 C-16.08 6 -8.16 6 0 6 C0 4.02 0 2.04 0 0 Z " fill="#DDCCF6" transform="translate(198,166)" data-index="20"></path>
<path d="M0 0 C4.12385927 1.78075741 6.79644397 4.08256705 9 8 C9.32802976 11.6916365 9.2329853 15.30459423 9 19 C9.59167969 19.19335938 10.18335937 19.38671875 10.79296875 19.5859375 C14.9146645 20.94414719 18.9950524 22.32050585 23 24 C19.57056481 25.18771723 17.62215325 24.80226223 14.25 23.5625 C13.45078125 23.27503906 12.6515625 22.98757812 11.828125 22.69140625 C10.92320313 22.34916016 10.92320313 22.34916016 10 22 C9.67 22.33 9.34 22.66 9 23 C7.33394172 23.0450286 5.66621616 23.03874921 4 23 C2.68 23 1.36 23 0 23 C-2.33634657 22.68848712 -4.67038557 22.35840222 -7 22 C-7 21.67 -7 21.34 -7 21 C-5.906875 20.731875 -4.81375 20.46375 -3.6875 20.1875 C0.35482356 18.93647993 0.35482356 18.93647993 3 16 C3.14702267 13.70155211 3.14702267 13.70155211 2.6875 11.3125 C2.56761719 10.50425781 2.44773437 9.69601563 2.32421875 8.86328125 C2.21722656 8.24839844 2.11023438 7.63351563 2 7 C-4.73881911 6.32722182 -4.73881911 6.32722182 -10.625 9 C-11.305625 9.99 -11.305625 9.99 -12 11 C-12.33 10.34 -12.66 9.68 -13 9 C-13.99 9.33 -14.98 9.66 -16 10 C-15.70179167 6.42150008 -15.25754642 5.23773516 -12.5625 2.75 C-8.36201784 -0.11862196 -5.03245577 -0.53330456 0 0 Z " fill="#831AF4" transform="translate(97,81)" data-index="21"></path>
<path d="M0 0 C5.97912053 -0.71749446 5.97912053 -0.71749446 8.80078125 1.265625 C10.34446483 2.78351912 11.74949891 4.23189224 13 6 C13 6.66 13 7.32 13 8 C16.62180026 5.30599413 16.62180026 5.30599413 19.3125 1.75 C21 0 21 0 22.9609375 -0.25 C24.97568248 -0.25 26.98957272 -0.1318313 29 0 C23.52878966 7.57696827 23.52878966 7.57696827 20.1875 10.25 C16.71152956 14.61979141 17.09534769 19.5651816 17 25 C15.02 25 13.04 25 11 25 C11.00902344 24.2265625 11.01804687 23.453125 11.02734375 22.65625 C10.82555723 15.56740191 9.87366921 11.6516089 4.7890625 6.62109375 C4.19867188 6.08613281 3.60828125 5.55117187 3 5 C1.2734375 3.41015625 1.2734375 3.41015625 0 2 C0 1.34 0 0.68 0 0 Z " fill="#6A26F8" transform="translate(75,166)" data-index="22"></path>
<path d="M0 0 C2.79192205 -0.05380578 5.5828141 -0.09357669 8.375 -0.125 C9.1690625 -0.14175781 9.963125 -0.15851563 10.78125 -0.17578125 C12.85492015 -0.19335473 14.92883241 -0.10335168 17 0 C19.60704898 2.60704898 19.23905333 4.47338241 19.265625 8.02734375 C19 10 19 10 17 13 C14.24458159 13.27613568 11.74908898 13.37257625 9 13.3125 C8.26265625 13.31572266 7.5253125 13.31894531 6.765625 13.32226562 C1.26707949 13.26707949 1.26707949 13.26707949 -1 11 C-1.23046875 8.90625 -1.23046875 8.90625 -1.1875 6.5 C-1.18105469 5.7059375 -1.17460938 4.911875 -1.16796875 4.09375 C-1 2 -1 2 0 0 Z " fill="#FBF9FB" transform="translate(7,172)" data-index="23"></path>
<path d="M0 0 C3.61875216 1.80937608 5.42842656 3.18398508 8.1875 6 C9.22970703 7.051875 9.22970703 7.051875 10.29296875 8.125 C14.40862583 12.6456302 13.06205362 18.16695929 13 24 C8.71 24 4.42 24 0 24 C0 16.08 0 8.16 0 0 Z " fill="#FBF9F9" transform="translate(73,167)" data-index="24"></path>
<path d="M0 0 C0.79792969 0.00386719 1.59585938 0.00773438 2.41796875 0.01171875 C3.21589844 0.00785156 4.01382813 0.00398437 4.8359375 0 C10.79136108 0.01011108 10.79136108 0.01011108 11.91796875 1.13671875 C11.99023377 2.98959377 12.00178095 4.84505753 11.98046875 6.69921875 C11.97144531 7.71113281 11.96242188 8.72304687 11.953125 9.765625 C11.94152344 10.54808594 11.92992188 11.33054688 11.91796875 12.13671875 C8.88372894 13.65383865 5.74292081 13.32111132 2.41796875 13.32421875 C1.72832031 13.33646484 1.03867188 13.34871094 0.328125 13.36132812 C-1.47680619 13.3666057 -3.28120967 13.25856333 -5.08203125 13.13671875 C-7.08203125 11.13671875 -7.08203125 11.13671875 -7.3125 8.7890625 C-7.29832031 7.89316406 -7.28414063 6.99726563 -7.26953125 6.07421875 C-7.26308594 5.17574219 -7.25664063 4.27726563 -7.25 3.3515625 C-6.90465167 -1.20221661 -3.89247417 0.00660861 0 0 Z " fill="#FCFBFB" transform="translate(115.08203125,171.86328125)" data-index="25"></path>
<path d="M0 0 C1.51303711 0.02030273 1.51303711 0.02030273 3.05664062 0.04101562 C5.51750621 0.07600424 7.97720335 0.12508842 10.4375 0.1875 C10.7675 1.1775 11.0975 2.1675 11.4375 3.1875 C14.0775 3.1875 16.7175 3.1875 19.4375 3.1875 C19.4375 4.1775 19.4375 5.1675 19.4375 6.1875 C9.84255575 9.80986097 -3.61715786 11.50261405 -13.5625 8.1875 C-13.2325 6.5375 -12.9025 4.8875 -12.5625 3.1875 C-13.5525 3.6825 -13.5525 3.6825 -14.5625 4.1875 C-16.56210012 4.227492 -18.56297242 4.23096799 -20.5625 4.1875 C-20.5625 3.8575 -20.5625 3.5275 -20.5625 3.1875 C-13.60164816 0.29285603 -7.48379996 -0.19316228 0 0 Z " fill="#7213F9" transform="translate(132.5625,105.8125)" data-index="26"></path>
<path d="M0 0 C3 1 3 1 5 3 C5.5625 5.25 5.5625 5.25 5 8 C3.43112981 9.51317066 1.73271288 10.78221031 0.00390625 12.109375 C-3.21645999 15.14769325 -5.11709534 18.9459061 -7.2265625 22.8046875 C-9 25 -9 25 -11.7109375 25.3203125 C-12.46632813 25.21460937 -13.22171875 25.10890625 -14 25 C-14 24.34 -14 23.68 -14 23 C-14.33 22.67 -14.66 22.34 -15 22 C-15.52321593 18.93544954 -15.45794885 16.80795261 -13.90625 14.0703125 C-10.2302369 9.04512438 -5.65932029 2.82966014 0 0 Z " fill="#4F7DF7" transform="translate(98,11)" data-index="27"></path>
<path d="M0 0 C2.56314499 -0.08132187 5.12368418 -0.14064175 7.6875 -0.1875 C8.40873047 -0.21263672 9.12996094 -0.23777344 9.87304688 -0.26367188 C14.47207891 -0.32667231 17.37434807 0.11427704 21 3 C23.33774031 6.50661047 23.3565834 8.21493488 23.4375 12.375 C23.47746094 13.49648437 23.51742187 14.61796875 23.55859375 15.7734375 C23 19 23 19 20.9921875 21.89453125 C17.04300645 24.67339364 14.37784375 24.58495071 9.6875 24.3125 C8.94693359 24.28994141 8.20636719 24.26738281 7.44335938 24.24414062 C5.62802643 24.1855815 3.81374319 24.09590886 2 24 C2 23.34 2 22.68 2 22 C4.64 22 7.28 22 10 22 C10 21.34 10 20.68 10 20 C6.37 20.33 2.74 20.66 -1 21 C-1 20.34 -1 19.68 -1 19 C4.94 18.67 10.88 18.34 17 18 C16.67 14.37 16.34 10.74 16 7 C13.525 6.01 13.525 6.01 11 5 C11.99 4.01 12.98 3.02 14 2 C7.07 1.505 7.07 1.505 0 1 C0 0.67 0 0.34 0 0 Z " fill="#6420F9" transform="translate(110,166)" data-index="28"></path>
<path d="M0 0 C0.33 0 0.66 0 1 0 C1.33 1.65 1.66 3.3 2 5 C4.97 5 7.94 5 11 5 C10.34 7.64 9.68 10.28 9 13 C11.97 13.495 11.97 13.495 15 14 C15 14.66 15 15.32 15 16 C15.99 16 16.98 16 18 16 C18 16.66 18 17.32 18 18 C20.64 18 23.28 18 26 18 C26 16.35 26 14.7 26 13 C27.11375 13.020625 28.2275 13.04125 29.375 13.0625 C32.83215921 13.26380718 32.83215921 13.26380718 35 12 C35.33 11.01 35.66 10.02 36 9 C36.495 10.485 36.495 10.485 37 12 C37.66 12 38.32 12 39 12 C37.26124871 15.98890001 35.32343178 17.81631521 31.6171875 20.015625 C25.34980052 22.37291085 17.86226551 22.21885947 11.734375 19.609375 C6.0487758 16.26299376 2.77091977 11.84971952 0 6 C-0.25 2.5625 -0.25 2.5625 0 0 Z " fill="#6A40F8" transform="translate(110,59)" data-index="29"></path>
<path d="M0 0 C1 3 1 3 0.0859375 4.84765625 C-0.27242187 5.55792969 -0.63078125 6.26820313 -1 7 C-1.66119832 12.15888454 -1.87923745 16.56391216 0.875 21.0625 C1.57625 21.701875 2.2775 22.34125 3 23 C3.66 23.66 4.32 24.32 5 25 C-0.61 25 -6.22 25 -12 25 C-13.41466276 15.21524927 -13.41466276 15.21524927 -10.82226562 11.15576172 C-7.54677119 7.10635144 -3.8229202 3.527099 0 0 Z " fill="#F9F7F7" transform="translate(104,166)" data-index="30"></path>
<path d="M0 0 C6.6 0 13.2 0 20 0 C20 3.3 20 6.6 20 10 C13.4 10 6.8 10 0 10 C0 6.7 0 3.4 0 0 Z " fill="#FAF6FD" transform="translate(238,181)" data-index="31"></path>
<path d="M0 0 C0.33 1.32 0.66 2.64 1 4 C1.66 4 2.32 4 3 4 C3.33 3.01 3.66 2.02 4 1 C4 2.32 4 3.64 4 5 C3.34 5 2.68 5 2 5 C2 5.66 2 6.32 2 7 C3.32 7 4.64 7 6 7 C5.79503906 7.66386719 5.59007813 8.32773437 5.37890625 9.01171875 C5.10949219 9.89472656 4.84007813 10.77773438 4.5625 11.6875 C4.29566406 12.55761719 4.02882813 13.42773438 3.75390625 14.32421875 C2.95095617 16.99399096 2.95095617 16.99399096 2.52734375 19.76953125 C2.35332031 20.50558594 2.17929688 21.24164063 2 22 C1.34 22.33 0.68 22.66 0 23 C-0.65213292 25.02463255 -0.65213292 25.02463255 -1 27 C-2.65 27 -4.3 27 -6 27 C-7.79865605 18.4972623 -6.11064292 10.31780165 -1.8125 2.75 C-1.214375 1.8425 -0.61625 0.935 0 0 Z " fill="#625EF7" transform="translate(82,29)" data-index="32"></path>
<path d="M0 0 C2.4375 1 2.4375 1 4 3 C4.49671024 6.46987584 4.59839645 9.80320709 3 13 C0.2950464 14.97669686 -1.1520178 14.99466604 -4.5625 14.875 C-8 14 -8 14 -9.9375 12.3125 C-11.33817538 9.26397123 -11.4842732 7.32073048 -11 4 C-8.04627097 -0.48966812 -5.14336369 -0.64292046 0 0 Z " fill="#F7FCFC" transform="translate(174,14)" data-index="33"></path>
<path d="M0 0 C2.95167993 1.61866319 3.03225355 3.10885572 4 6.375 C4 10 4 10 2 13 C-1 15 -1 15 -4.625 15 C-9.61768902 13.52068474 -9.61768902 13.52068474 -11 11 C-11.52776637 7.43943533 -11.62903915 4.25807831 -10 1 C-6.74192169 -0.62903915 -3.56056467 -0.52776637 0 0 Z " fill="#F9F6FA" transform="translate(97,87)" data-index="34"></path>
<path d="M0 0 C0.66 0 1.32 0 2 0 C1.93039063 0.90492188 1.93039063 0.90492188 1.859375 1.828125 C1.82328125 2.62734375 1.7871875 3.4265625 1.75 4.25 C1.68039063 5.43335938 1.68039063 5.43335938 1.609375 6.640625 C1.86394367 9.0934745 1.86394367 9.0934745 3.375 11.25 C7.43564029 13.95709353 11.47004795 13.67635928 16.25 13.75 C17.65378906 13.79447266 17.65378906 13.79447266 19.0859375 13.83984375 C21.39071092 13.91039804 23.69448168 13.96316252 26 14 C26 15.32 26 16.64 26 18 C23.14557247 18.05437005 20.29219924 18.09384974 17.4375 18.125 C16.63763672 18.14175781 15.83777344 18.15851563 15.01367188 18.17578125 C9.93499665 18.21723982 5.81188094 17.64056075 1 16 C2.61268692 18.71224618 4.24901874 21.37352812 6 24 C1.38 24 -3.24 24 -8 24 C-6.35 22.68 -4.7 21.36 -3 20 C-1.49843126 16.99686252 -1.90718796 14.20932478 -1.9375 10.875 C-1.94652344 9.59367188 -1.95554687 8.31234375 -1.96484375 6.9921875 C-1.97644531 6.00476563 -1.98804688 5.01734375 -2 4 C-1.34 3.67 -0.68 3.34 0 3 C0 2.01 0 1.02 0 0 Z " fill="#F3E8F6" transform="translate(32,167)" data-index="35"></path>
<path d="M0 0 C1.65 0 3.3 0 5 0 C5 2.64 5 5.28 5 8 C3.68 7.67 2.36 7.34 1 7 C2.83656989 9.96731398 2.83656989 9.96731398 5 12 C6.93257855 12.36831081 6.93257855 12.36831081 9.1328125 12.4140625 C10.34130859 12.47207031 10.34130859 12.47207031 11.57421875 12.53125 C12.83685547 12.57765625 12.83685547 12.57765625 14.125 12.625 C14.97449219 12.66367188 15.82398438 12.70234375 16.69921875 12.7421875 C18.79911684 12.83656494 20.89952891 12.91937586 23 13 C23.33 12.34 23.66 11.68 24 11 C18.06 11 12.12 11 6 11 C6 10.67 6 10.34 6 10 C9.12492251 9.94208156 12.24970766 9.90643254 15.375 9.875 C16.26445312 9.85824219 17.15390625 9.84148437 18.0703125 9.82421875 C18.92109375 9.81777344 19.771875 9.81132812 20.6484375 9.8046875 C21.82672119 9.78897705 21.82672119 9.78897705 23.02880859 9.77294922 C25 10 25 10 27 12 C26.67 12.99 26.34 13.98 26 15 C19.07 15 12.14 15 5 15 C5 18.3 5 21.6 5 25 C3.35 25 1.7 25 0 25 C0 16.75 0 8.5 0 0 Z " fill="#5F17F9" transform="translate(233,166)" data-index="36"></path>
<path d="M0 0 C1.9375 0.375 1.9375 0.375 4 1 C4.33 1.66 4.66 2.32 5 3 C5.66 2.34 6.32 1.68 7 1 C7.6640625 2.7265625 7.6640625 2.7265625 8 5 C6.9609375 7.1484375 6.9609375 7.1484375 5.375 9.375 C4.82328125 10.15488281 4.2715625 10.93476562 3.703125 11.73828125 C1.55979549 14.58458351 -0.65861151 17.31428968 -3 20 C-3.61875 19.814375 -4.2375 19.62875 -4.875 19.4375 C-7.04160178 18.76313824 -7.04160178 18.76313824 -9 20 C-8.34 18.68 -7.68 17.36 -7 16 C-7.33 15.67 -7.66 15.34 -8 15 C-8.66 14.34 -9.32 13.68 -10 13 C-9.52949219 12.48050781 -9.05898437 11.96101563 -8.57421875 11.42578125 C-5.32559823 7.78705723 -2.30339528 4.33580287 0 0 Z " fill="#6953F5" transform="translate(175,80)" data-index="37"></path>
<path d="M0 0 C0.67493341 2.22667765 1.33963044 4.45645977 2 6.6875 C2.37125 7.92886719 2.7425 9.17023437 3.125 10.44921875 C3.87703457 13.5010019 4.19034899 15.88898362 4 19 C3.34 19 2.68 19 2 19 C1.67 19.99 1.34 20.98 1 22 C0.67 20.35 0.34 18.7 0 17 C-0.99 17.33 -1.98 17.66 -3 18 C-3.33 21.96 -3.66 25.92 -4 30 C-4.33 30 -4.66 30 -5 30 C-5.04898438 28.96101563 -5.09796875 27.92203125 -5.1484375 26.8515625 C-5.55209446 19.08046683 -6.12216201 11.58427772 -8 4 C-2.25 0 -2.25 0 0 0 Z " fill="#61D1F7" transform="translate(185,34)" data-index="38"></path>
<path d="M0 0 C3 1 3 1 4.36328125 2.51953125 C6.58762022 4.53152282 8.23142363 4.49554699 11.1875 4.6875 C12.08855469 4.75324219 12.98960938 4.81898438 13.91796875 4.88671875 C14.60503906 4.92410156 15.29210937 4.96148437 16 5 C16 5.33 16 5.66 16 6 C11.05 6 6.1 6 1 6 C0.979375 7.77375 0.95875 9.5475 0.9375 11.375 C0.92589844 12.37273437 0.91429687 13.37046875 0.90234375 14.3984375 C0.81993398 16.98432453 0.81993398 16.98432453 2 19 C1.34 19.99 0.68 20.98 0 22 C-0.99 20.68 -1.98 19.36 -3 18 C-2.34 18 -1.68 18 -1 18 C-1.33 15.69 -1.66 13.38 -2 11 C-2.3449145 12.33038449 -2.67516582 13.66457061 -3 15 C-3.28875 15.804375 -3.5775 16.60875 -3.875 17.4375 C-4.31026486 20.29643212 -4.31026486 20.29643212 -1.5625 22.8125 C-0.2940625 23.8953125 -0.2940625 23.8953125 1 25 C-1.31 25 -3.62 25 -6 25 C-6.08120751 22.10359882 -6.14059421 19.20949088 -6.1875 16.3125 C-6.21263672 15.49587891 -6.23777344 14.67925781 -6.26367188 13.83789062 C-6.32173421 9.0574247 -6.16104605 5.85367618 -3 2 C-2.01 1.34 -1.02 0.68 0 0 Z " fill="#6827F3" transform="translate(6,166)" data-index="39"></path>
<path d="M0 0 C9.9 0 19.8 0 30 0 C30 1.98 30 3.96 30 6 C22.08 6 14.16 6 6 6 C6 5.67 6 5.34 6 5 C11.94 4.67 17.88 4.34 24 4 C21.091875 3.95875 18.18375 3.9175 15.1875 3.875 C14.27508545 3.85679199 13.3626709 3.83858398 12.42260742 3.81982422 C11.69920166 3.8148291 10.9757959 3.80983398 10.23046875 3.8046875 C9.49207764 3.79421387 8.75368652 3.78374023 7.99291992 3.77294922 C5.68109324 3.88258521 5.68109324 3.88258521 3 6 C2.01 4.02 1.02 2.04 0 0 Z " fill="#601AFB" transform="translate(168,166)" data-index="40"></path>
<path d="M0 0 C0.33 0.66 0.66 1.32 1 2 C1.66 2.33 2.32 2.66 3 3 C3 5.31 3 7.62 3 10 C8.28 10 13.56 10 19 10 C19.66 8.68 20.32 7.36 21 6 C21 8.97 21 11.94 21 15 C14.4 15 7.8 15 1 15 C1 12.03 1 9.06 1 6 C-0.65 6 -2.3 6 -4 6 C-3.67 5.01 -3.34 4.02 -3 3 C-2.34 3 -1.68 3 -1 3 C-0.67 2.01 -0.34 1.02 0 0 Z " fill="#FDFBFB" transform="translate(237,160)" data-index="41"></path>
<path d="M0 0 C0.99 0.33 1.98 0.66 3 1 C3 4 3 7 3 10 C3.33 10.33 3.66 10.66 4 11 C4.33 10.34 4.66 9.68 5 9 C10.61 9 16.22 9 22 9 C22 10.98 22 12.96 22 15 C19.28996573 15.1358035 16.58681059 15.23444624 13.875 15.3125 C13.11445313 15.35439453 12.35390625 15.39628906 11.5703125 15.43945312 C7.49640756 15.5272528 4.75374679 15.27644554 1.4375 12.77734375 C-1 10 -1 10 -1.3671875 7.578125 C-1.20476562 6.80984375 -1.04234375 6.0415625 -0.875 5.25 C-0.65457031 4.08210937 -0.65457031 4.08210937 -0.4296875 2.890625 C-0.28789062 2.26671875 -0.14609375 1.6428125 0 1 C0 0.67 0 0.34 0 0 Z " fill="#6B27FB" transform="translate(2,176)" data-index="42"></path>
<path d="M0 0 C0.99 0.99 1.98 1.98 3 3 C3.66 2.01 4.32 1.02 5 0 C5 0.66 5 1.32 5 2 C5.83192871 1.9388501 5.83192871 1.9388501 6.68066406 1.87646484 C9.20310571 1.69764683 11.72637126 1.53616062 14.25 1.375 C15.12269531 1.31054688 15.99539062 1.24609375 16.89453125 1.1796875 C17.73886719 1.128125 18.58320313 1.0765625 19.453125 1.0234375 C20.22817383 0.97106934 21.00322266 0.91870117 21.80175781 0.86474609 C24 1 24 1 28 3 C20.41 3 12.82 3 5 3 C5 4.65 5 6.3 5 8 C12.59 8 20.18 8 28 8 C28 9.65 28 11.3 28 13 C20.41 13 12.82 13 5 13 C5 12.67 5 12.34 5 12 C8.10364229 11.80303551 11.20792192 11.61906738 14.3125 11.4375 C15.63411133 11.35338867 15.63411133 11.35338867 16.98242188 11.26757812 C18.25375977 11.19506836 18.25375977 11.19506836 19.55078125 11.12109375 C20.72120972 11.05039673 20.72120972 11.05039673 21.9152832 10.97827148 C24 11 24 11 27 12 C27 11.01 27 10.02 27 9 C20.07 9 13.14 9 6 9 C5.67 9.66 5.34 10.32 5 11 C4.67 10.01 4.34 9.02 4 8 C3.34 8 2.68 8 2 8 C2.20625 8.5775 2.4125 9.155 2.625 9.75 C3.08661261 12.51967567 2.42944945 13.64561267 1 16 C1.66 16.33 2.32 16.66 3 17 C2.01 17.99 1.02 18.98 0 20 C0 13.4 0 6.8 0 0 Z " fill="#5E16FA" transform="translate(169,168)" data-index="43"></path>
<path d="M0 0 C4.52827465 2.59906888 8.37147862 5.29679456 11.140625 9.828125 C11.140625 10.488125 11.140625 11.148125 11.140625 11.828125 C8.500625 11.828125 5.860625 11.828125 3.140625 11.828125 C3.140625 9.188125 3.140625 6.548125 3.140625 3.828125 C-4.779375 3.828125 -12.699375 3.828125 -20.859375 3.828125 C-20.859375 3.168125 -20.859375 2.508125 -20.859375 1.828125 C-14.59377326 -2.34894282 -6.97362864 -2.85804452 0 0 Z " fill="#4DBEF8" transform="translate(140.859375,36.171875)" data-index="44"></path>
<path d="M0 0 C8.25 0 16.5 0 25 0 C25 1.65 25 3.3 25 5 C16.75 5 8.5 5 0 5 C-0.33 4.34 -0.66 3.68 -1 3 C-0.67 2.01 -0.34 1.02 0 0 Z " fill="#6620FB" transform="translate(172,185)" data-index="45"></path>
<path d="M0 0 C1.65 0 3.3 0 5 0 C5 8.25 5 16.5 5 25 C3.35 25 1.7 25 0 25 C0 16.75 0 8.5 0 0 Z " fill="#6619FA" transform="translate(67,166)" data-index="46"></path>
<path d="M0 0 C1.32 0 2.64 0 4 0 C4 0.66 4 1.32 4 2 C4.99 2.33 5.98 2.66 7 3 C7.66 2.01 8.32 1.02 9 0 C9 8.25 9 16.5 9 25 C5.7 25 2.4 25 -1 25 C-0.236875 24.46375 0.52625 23.9275 1.3125 23.375 C4.22864474 20.79794186 5.4705622 18.54185596 7 15 C5.02 15 3.04 15 1 15 C1 13 1 11 1 9 C2.65 9 4.3 9 6 9 C5.89830839 6.05272465 5.89830839 6.05272465 5 3 C2.53744315 1.54708727 2.53744315 1.54708727 0 1 C0 0.67 0 0.34 0 0 Z " fill="#F9F4F6" transform="translate(224,166)" data-index="47"></path>
<path d="M0 0 C2 3 2 3 2.9375 6.5 C4.05832587 10.48830057 4.05832587 10.48830057 7 13 C9.30988315 13.74386068 11.64315944 14.42190703 14 15 C13.67 15.66 13.34 16.32 13 17 C9.39356308 18.14646732 5.61767951 18.79524581 2.140625 17.0859375 C-0.66419285 14.82264389 -3.00691997 12.47578009 -4 9 C-4.14516709 6.30922438 -4.089984 3.69952011 -4 1 C-2.68 0.67 -1.36 0.34 0 0 Z " fill="#A01CF9" transform="translate(84,89)" data-index="48"></path>
<path d="M0 0 C0.99 0.33 1.98 0.66 3 1 C2.625 3.4375 2.625 3.4375 2 6 C0 7 0 7 -3.875 6.8125 C-7.20589183 6.74588216 -7.7585132 6.80681056 -10.5 9 C-10.995 9.66 -11.49 10.32 -12 11 C-12.33 10.34 -12.66 9.68 -13 9 C-13.99 9.33 -14.98 9.66 -16 10 C-15.70179167 6.42150008 -15.25754642 5.23773516 -12.5625 2.75 C-8.34125785 -0.13279952 -5.03734755 -0.33914815 0 0 Z " fill="#842BF3" transform="translate(97,81)" data-index="49"></path>
<path d="M0 0 C0.66 0 1.32 0 2 0 C1.95875 0.7425 1.9175 1.485 1.875 2.25 C2.00398134 5.08758952 2.57051222 6.58773938 4 9 C4.99 8.67 5.98 8.34 7 8 C5.93846154 15.60769231 5.93846154 15.60769231 4 19 C1.5625 20 1.5625 20 -1 20 C-2.875 18.9375 -2.875 18.9375 -4 17 C-3.71342015 11.26840292 -1.55899365 5.51040523 0 0 Z " fill="#689FF7" transform="translate(180,64)" data-index="50"></path>
<path d="M0 0 C3 1 3 1 5 3 C5.5625 5.25 5.5625 5.25 5 8 C2.86238067 10.26555664 0.4976288 12.1458929 -2 14 C-6.875 12.25 -6.875 12.25 -8 10 C-7.01 10 -6.02 10 -5 10 C-5.33 8.35 -5.66 6.7 -6 5 C-1.60546875 0.99609375 -1.60546875 0.99609375 0 0 Z " fill="#40ABF2" transform="translate(98,11)" data-index="51"></path>
<path d="M0 0 C3.4165052 -0.08724706 6.83272313 -0.14047325 10.25 -0.1875 C11.70212891 -0.22520508 11.70212891 -0.22520508 13.18359375 -0.26367188 C14.58544922 -0.27817383 14.58544922 -0.27817383 16.015625 -0.29296875 C16.87446289 -0.3086792 17.73330078 -0.32438965 18.61816406 -0.34057617 C21.56974216 0.08146682 22.92403343 0.87090358 25 3 C25 4.32 25 5.64 25 7 C23.33388095 7.042721 21.66617115 7.04063832 20 7 C19.67 6.67 19.34 6.34 19 6 C17.58672053 5.84379445 16.1664541 5.74943827 14.74609375 5.68359375 C13.89208984 5.64169922 13.03808594 5.59980469 12.15820312 5.55664062 C11.26037109 5.51732422 10.36253906 5.47800781 9.4375 5.4375 C8.53580078 5.39431641 7.63410156 5.35113281 6.70507812 5.30664062 C4.47021515 5.20021858 2.23523692 5.09820012 0 5 C0 4.67 0 4.34 0 4 C4.455 3.505 4.455 3.505 9 3 C9 2.34 9 1.68 9 1 C6.03 1 3.06 1 0 1 C0 0.67 0 0.34 0 0 Z " fill="#5F16FB" transform="translate(39,166)" data-index="52"></path>
<path d="M0 0 C1.98 0 3.96 0 6 0 C5.42531075 3.87915244 3.62115553 6.14756605 1 9 C-2.76300374 10.25433458 -6.27210909 10.10695422 -10.1875 10.0625 C-10.93708984 10.05798828 -11.68667969 10.05347656 -12.45898438 10.04882812 C-14.30602383 10.03706354 -16.15302213 10.01912865 -18 10 C-18 9.67 -18 9.34 -18 9 C-14.7 8.67 -11.4 8.34 -8 8 C-10.64 7.67 -13.28 7.34 -16 7 C-14 5 -14 5 -11.1796875 4.8046875 C-10.08914062 4.82789063 -8.99859375 4.85109375 -7.875 4.875 C-6.77929688 4.89304688 -5.68359375 4.91109375 -4.5546875 4.9296875 C-3.71164063 4.95289063 -2.86859375 4.97609375 -2 5 C-1.34 3.35 -0.68 1.7 0 0 Z " fill="#712EF8" transform="translate(225,181)" data-index="53"></path>
<path d="M0 0 C0.33 0 0.66 0 1 0 C1 8.25 1 16.5 1 25 C-1.64 25 -4.28 25 -7 25 C-6.34 24.505 -5.68 24.01 -5 23.5 C-2.0742694 19.84283675 -2.55392411 17.60945082 -3 13 C-5.48057628 10.51942372 -6.36192464 10.70980995 -9.7890625 10.5859375 C-11.20058594 10.52792969 -11.20058594 10.52792969 -12.640625 10.46875 C-13.62546875 10.4378125 -14.6103125 10.406875 -15.625 10.375 C-16.61757813 10.33632812 -17.61015625 10.29765625 -18.6328125 10.2578125 C-21.08835385 10.1633686 -23.5438841 10.07780125 -26 10 C-26 9.67 -26 9.34 -26 9 C-22.02084841 8.97113016 -18.04172347 8.95324594 -14.0625 8.9375 C-12.92619141 8.92912109 -11.78988281 8.92074219 -10.61914062 8.91210938 C-9.53955078 8.90888672 -8.45996094 8.90566406 -7.34765625 8.90234375 C-5.84730835 8.89448853 -5.84730835 8.89448853 -4.31665039 8.88647461 C-2 9 -2 9 -1 10 C-0.67 6.7 -0.34 3.4 0 0 Z " fill="#CCBAF9" transform="translate(66,166)" data-index="54"></path>
<path d="M0 0 C0.33 0 0.66 0 1 0 C1 1.98 1 3.96 1 6 C-3.29 6 -7.58 6 -12 6 C-12 12.27 -12 18.54 -12 25 C-12.33 25 -12.66 25 -13 25 C-13 18.73 -13 12.46 -13 6 C-15.475 5.01 -15.475 5.01 -18 4 C-17.34 3.01 -16.68 2.02 -16 1 C-13.37302936 0.77862607 -10.99106036 0.71837975 -8.375 0.8125 C-7.66859375 0.82603516 -6.9621875 0.83957031 -6.234375 0.85351562 C-4.48925872 0.8888896 -2.74453392 0.94269779 -1 1 C-0.67 2.32 -0.34 3.64 0 5 C0 3.35 0 1.7 0 0 Z " fill="#8246FA" transform="translate(166,166)" data-index="55"></path>
<path d="M0 0 C2.56314499 -0.08132187 5.12368418 -0.14064175 7.6875 -0.1875 C8.40873047 -0.21263672 9.12996094 -0.23777344 9.87304688 -0.26367188 C14.47207891 -0.32667231 17.37434807 0.11427704 21 3 C23.35119399 6.52679099 23.21443452 8.02879485 23.125 12.1875 C23.10695312 13.27417969 23.08890625 14.36085937 23.0703125 15.48046875 C23.04710937 16.31191406 23.02390625 17.14335937 23 18 C22.67 18 22.34 18 22 18 C21.67 15.03 21.34 12.06 21 9 C20.34 10.98 19.68 12.96 19 15 C18.67 15 18.34 15 18 15 C17.95875 13.906875 17.9175 12.81375 17.875 11.6875 C17.39434602 7.75003667 17.39434602 7.75003667 13.9375 6.0625 C12.968125 5.711875 11.99875 5.36125 11 5 C11.99 4.01 12.98 3.02 14 2 C7.07 1.505 7.07 1.505 0 1 C0 0.67 0 0.34 0 0 Z " fill="#5F18F6" transform="translate(110,166)" data-index="56"></path>
<path d="M0 0 C5.28 0.33 10.56 0.66 16 1 C16 2.65 16 4.3 16 6 C14.35 6.33 12.7 6.66 11 7 C11 6.67 11 6.34 11 6 C9.96359375 5.96261719 8.9271875 5.92523437 7.859375 5.88671875 C6.48954816 5.82104212 5.11975809 5.75459536 3.75 5.6875 C3.06808594 5.66494141 2.38617188 5.64238281 1.68359375 5.61914062 C-2.45151296 5.39833396 -4.97914434 4.90407 -8 2 C-5.36 2 -2.72 2 0 2 C0 1.34 0 0.68 0 0 Z " fill="#3CDBF4" transform="translate(128,3)" data-index="57"></path>
<path d="M0 0 C0.33 1.32 0.66 2.64 1 4 C1.66 4 2.32 4 3 4 C3.33 3.01 3.66 2.02 4 1 C4 2.32 4 3.64 4 5 C3.34 5 2.68 5 2 5 C2 5.66 2 6.32 2 7 C3.32 7 4.64 7 6 7 C5.01 10.3 4.02 13.6 3 17 C-1 15 -1 15 -1.93359375 12.79296875 C-3.30619201 5.69589093 -3.30619201 5.69589093 -1.625 1.875 C-1.08875 1.25625 -0.5525 0.6375 0 0 Z " fill="#5C72F6" transform="translate(82,29)" data-index="58"></path>
<path d="M0 0 C2 3 2 3 1.625 5.1875 C1.41875 5.785625 1.2125 6.38375 1 7 C-2.86723631 8.26582219 -6.73151262 8.1118765 -10.75 8.0625 C-11.44738281 8.05798828 -12.14476562 8.05347656 -12.86328125 8.04882812 C-14.57555803 8.0371002 -16.28779033 8.01916653 -18 8 C-17.67 7.34 -17.34 6.68 -17 6 C-17.99 6 -18.98 6 -20 6 C-20 5.34 -20 4.68 -20 4 C-15.34871924 3.020783 -11.0816225 3.00813837 -6.3671875 3.2578125 C-3.46724748 2.94197745 -2.15989563 1.9011063 0 0 Z " fill="#F7FCF8" transform="translate(180,30)" data-index="59"></path>
<path d="M0 0 C1.33804688 0.17982422 1.33804688 0.17982422 2.703125 0.36328125 C3.37859375 0.47027344 4.0540625 0.57726562 4.75 0.6875 C5.08 1.6775 5.41 2.6675 5.75 3.6875 C8.72 4.0175 11.69 4.3475 14.75 4.6875 C14.75 5.0175 14.75 5.3475 14.75 5.6875 C13.82719238 5.6560791 13.82719238 5.6560791 12.88574219 5.62402344 C10.09066191 5.54072983 7.29584285 5.48879987 4.5 5.4375 C3.53191406 5.40398437 2.56382813 5.37046875 1.56640625 5.3359375 C-4.07953228 5.14019069 -4.07953228 5.14019069 -8.921875 7.703125 C-9.36015625 8.35796875 -9.7984375 9.0128125 -10.25 9.6875 C-9.76096247 3.20775269 -9.76096247 3.20775269 -7.53125 0.9375 C-4.68403827 -0.62261602 -3.18209252 -0.46056602 0 0 Z " fill="#7C40F8" transform="translate(43.25,166.3125)" data-index="60"></path>
<path d="M0 0 C-0.99 1.175625 -0.99 1.175625 -2 2.375 C-4.20201441 4.71512812 -4.20201441 4.71512812 -4 7 C-8.62 7 -13.24 7 -18 7 C-18 6.01 -18 5.02 -18 4 C-21.3 4 -24.6 4 -28 4 C-28 3.67 -28 3.34 -28 3 C-27.04480469 2.96261719 -26.08960937 2.92523438 -25.10546875 2.88671875 C-17.73184877 2.51178892 -11.14922013 1.82889385 -4.07421875 -0.4765625 C-2 -1 -2 -1 0 0 Z " fill="#F8F7F4" transform="translate(154,112)" data-index="61"></path>
<path d="M0 0 C0.680625 0.268125 1.36125 0.53625 2.0625 0.8125 C1.7325 1.4725 1.4025 2.1325 1.0625 2.8125 C1.0625 3.1425 1.0625 3.4725 1.0625 3.8125 C2.0525 4.4725 3.0425 5.1325 4.0625 5.8125 C2.0825 7.4625 0.1025 9.1125 -1.9375 10.8125 C-2.535625 10.503125 -3.13375 10.19375 -3.75 9.875 C-6.02706772 8.71040296 -6.02706772 8.71040296 -8.9375 7.8125 C-9.2675 6.8225 -9.5975 5.8325 -9.9375 4.8125 C-3.86310175 -0.24658096 -3.86310175 -0.24658096 0 0 Z " fill="#6633F8" transform="translate(166.9375,94.1875)" data-index="62"></path>
<path d="M0 0 C0.433125 0.495 0.86625 0.99 1.3125 1.5 C2.99740483 3.33218192 2.99740483 3.33218192 6 3 C4.55536047 6.37082558 2.75336875 8.58037292 0 11 C-0.99 11.33 -1.98 11.66 -3 12 C-4.33333333 9.33333333 -5.66666667 6.66666667 -7 4 C-4.69 2.68 -2.38 1.36 0 0 Z " fill="#2ED4F3" transform="translate(106,6)" data-index="63"></path>
<path d="M0 0 C0.84256348 0.23771118 0.84256348 0.23771118 1.70214844 0.48022461 C4.09674429 1.02188362 6.31438553 1.20641474 8.765625 1.31640625 C9.65507812 1.35830078 10.54453125 1.40019531 11.4609375 1.44335938 C12.38132813 1.48267578 13.30171875 1.52199219 14.25 1.5625 C15.18585938 1.60568359 16.12171875 1.64886719 17.0859375 1.69335938 C19.39048641 1.7991805 21.69513839 1.90126557 24 2 C23.67 3.65 23.34 5.3 23 7 C19.91595192 6.88979143 16.83308808 6.75924186 13.75 6.625 C12.44095703 6.57859375 12.44095703 6.57859375 11.10546875 6.53125 C10.26113281 6.49257812 9.41679687 6.45390625 8.546875 6.4140625 C7.77182617 6.3826416 6.99677734 6.3512207 6.19824219 6.31884766 C3.79134258 5.96973494 2.10397705 5.19448896 0 4 C0 2.68 0 1.36 0 0 Z " fill="#7B3DF9" transform="translate(234,173)" data-index="64"></path>
<path d="M0 0 C3.125 -0.4375 3.125 -0.4375 7 0 C9.54460532 1.96530156 11.54891566 4.12123591 13 7 C12.65625 9.234375 12.65625 9.234375 12 11 C8.17753412 10.44040477 6.41028259 8.78682643 3.75 6.0625 C3.04359375 5.35222656 2.3371875 4.64195312 1.609375 3.91015625 C0 2 0 2 0 0 Z " fill="#6822F4" transform="translate(75,166)" data-index="65"></path>
<path d="M0 0 C1.18916016 0.0918457 1.18916016 0.0918457 2.40234375 0.18554688 C4.35275869 0.33829021 6.30159555 0.51095244 8.25 0.6875 C7.26 2.1725 7.26 2.1725 6.25 3.6875 C6.58 4.3475 6.91 5.0075 7.25 5.6875 C2.96 5.6875 -1.33 5.6875 -5.75 5.6875 C-5.75 5.0275 -5.75 4.3675 -5.75 3.6875 C-6.74 4.0175 -7.73 4.3475 -8.75 4.6875 C-10.9375 3.75 -10.9375 3.75 -12.75 2.6875 C-8.92901767 -1.30809712 -5.08149365 -0.47612669 0 0 Z " fill="#7836FA" transform="translate(116.75,166.3125)" data-index="66"></path>
<path d="M0 0 C0.33 0 0.66 0 1 0 C1.33 1.65 1.66 3.3 2 5 C2.99 5 3.98 5 5 5 C5.33 3.35 5.66 1.7 6 0 C7.64826111 2.96687001 8.44271087 5.65626525 9 9 C3.25 13 3.25 13 1 13 C0.43983252 11.59054634 -0.09748502 10.1719969 -0.625 8.75 C-0.92664063 7.96109375 -1.22828125 7.1721875 -1.5390625 6.359375 C-2.09752136 3.50082285 -1.53690745 2.41040161 0 0 Z " fill="#7C43F8" transform="translate(78,68)" data-index="67"></path>
<path d="M0 0 C0 0.66 0 1.32 0 2 C-4.49167828 3.19600901 -8.73269793 2.9185704 -13.3125 2.5625 C-14.42334961 2.48418945 -14.42334961 2.48418945 -15.55664062 2.40429688 C-17.37152709 2.27549848 -19.18583325 2.13856738 -21 2 C-21.33 1.01 -21.66 0.02 -22 -1 C-18.89685213 -1.22595954 -15.79259193 -1.42770896 -12.6875 -1.625 C-11.36588867 -1.72167969 -11.36588867 -1.72167969 -10.01757812 -1.8203125 C-9.17001953 -1.871875 -8.32246094 -1.9234375 -7.44921875 -1.9765625 C-6.27879028 -2.05511475 -6.27879028 -2.05511475 -5.0847168 -2.13525391 C-3 -2 -3 -2 0 0 Z " fill="#6820FC" transform="translate(61,186)" data-index="68"></path>
<path d="M0 0 C2.72977064 -0.08126109 5.4571017 -0.14061663 8.1875 -0.1875 C9.34088867 -0.22520508 9.34088867 -0.22520508 10.51757812 -0.26367188 C15.14535298 -0.32325696 18.30232993 -0.11990912 22 3 C22.8125 6.1875 22.8125 6.1875 23 9 C21.35 9 19.7 9 18 9 C17.67 8.01 17.34 7.02 17 6 C16.01 5.67 15.02 5.34 14 5 C14 3.68 14 2.36 14 1 C9.38 1 4.76 1 0 1 C0 0.67 0 0.34 0 0 Z " fill="#5B16F4" transform="translate(207,166)" data-index="69"></path>
<path d="M0 0 C0.70447266 -0.00128906 1.40894531 -0.00257812 2.13476562 -0.00390625 C9.1040785 0.13409995 15.11305934 1.87726934 21.625 4.375 C19.03109062 5.23963646 16.87975121 5.68219632 14.1875 6 C13.42566406 6.09539063 12.66382813 6.19078125 11.87890625 6.2890625 C9.57730599 6.37681849 7.81744302 6.04421951 5.625 5.375 C5.625 4.055 5.625 2.735 5.625 1.375 C-2.295 1.87 -2.295 1.87 -10.375 2.375 C-6.79629642 -0.01080239 -4.14373837 -0.00778167 0 0 Z " fill="#EAFAFC" transform="translate(130.375,8.625)" data-index="70"></path>
<path d="M0 0 C1.65 0 3.3 0 5 0 C5 7.92 5 15.84 5 24 C4.67 24 4.34 24 4 24 C4 20.7 4 17.4 4 14 C3.34 13.67 2.68 13.34 2 13 C2 12.01 2 11.02 2 10 C1.34 10 0.68 10 0 10 C0 6.7 0 3.4 0 0 Z " fill="#631DF8" transform="translate(258,166)" data-index="71"></path>
<path d="M0 0 C1.98 0.99 1.98 0.99 4 2 C4 2.99 4 3.98 4 5 C11.59 5 19.18 5 27 5 C27 5.66 27 6.32 27 7 C26.07719238 6.9685791 26.07719238 6.9685791 25.13574219 6.93652344 C22.34066191 6.85322983 19.54584285 6.80129987 16.75 6.75 C15.78191406 6.71648437 14.81382813 6.68296875 13.81640625 6.6484375 C8.25269317 6.44819694 8.25269317 6.44819694 3.453125 8.890625 C2.97359375 9.58671875 2.4940625 10.2828125 2 11 C1.34 11.66 0.68 12.32 0 13 C0 8.71 0 4.42 0 0 Z " fill="#F6ECFA" transform="translate(0,160)" data-index="72"></path>
<path d="M0 0 C0.68964844 0.495 1.37929687 0.99 2.08984375 1.5 C5.57575551 3.29676526 7.67758987 3.21607843 11.5625 3 C17.47457697 2.67193099 17.47457697 2.67193099 20.40234375 4.5 C20.92957031 4.995 21.45679687 5.49 22 6 C19.69 6.66 17.38 7.32 15 8 C15 7.34 15 6.68 15 6 C13.68 6 12.36 6 11 6 C11 6.66 11 7.32 11 8 C9.68 8 8.36 8 7 8 C7 7.34 7 6.68 7 6 C5.824375 5.7834375 5.824375 5.7834375 4.625 5.5625 C2 5 2 5 0 4 C0 2.68 0 1.36 0 0 Z " fill="#F5E8FA" transform="translate(83,103)" data-index="73"></path>
<path d="M0 0 C0.66 0.33 1.32 0.66 2 1 C2 1.66 2 2.32 2 3 C2.66 3 3.32 3 4 3 C2.49776416 7.20626034 -0.28550034 8.73900021 -4 11 C-5.9375 10.3125 -5.9375 10.3125 -8 9 C-8.75 6.375 -8.75 6.375 -9 4 C-7.88625 4.020625 -6.7725 4.04125 -5.625 4.0625 C-2.16784079 4.26380718 -2.16784079 4.26380718 0 3 C0 2.01 0 1.02 0 0 Z " fill="#665EF9" transform="translate(145,68)" data-index="74"></path>
<path d="M0 0 C0.33 0 0.66 0 1 0 C1.33 1.65 1.66 3.3 2 5 C4.97 5 7.94 5 11 5 C10.34 7.97 9.68 10.94 9 14 C8.67 13.34 8.34 12.68 8 12 C7.34 12 6.68 12 6 12 C5.67 12.99 5.34 13.98 5 15 C-0.74031891 5.77448747 -0.74031891 5.77448747 0 0 Z " fill="#6A52F7" transform="translate(110,59)" data-index="75"></path>
<path d="M0 0 C1.9375 0.375 1.9375 0.375 4 1 C4.33 1.66 4.66 2.32 5 3 C5.66 2.34 6.32 1.68 7 1 C7.75 2.625 7.75 2.625 8 5 C6.375 8.25 6.375 8.25 4 11 C1.25 11.375 1.25 11.375 -1 11 C-0.34 10.67 0.32 10.34 1 10 C0.46375 8.906875 -0.0725 7.81375 -0.625 6.6875 C-1.07875 5.470625 -1.5325 4.25375 -2 3 C-1.34 2.01 -0.68 1.02 0 0 Z " fill="#6669F8" transform="translate(175,80)" data-index="76"></path>
<path d="M0 0 C4.875 3.75 4.875 3.75 6 6 C6.06950541 7.54023996 6.08452357 9.08334988 6.0625 10.625 C6.05347656 11.44226563 6.04445313 12.25953125 6.03515625 13.1015625 C6.02355469 13.72804688 6.01195313 14.35453125 6 15 C5.01 13.68 4.02 12.36 3 11 C3 11.99 3 12.98 3 14 C2.34 14 1.68 14 1 14 C0.44021816 12.42298018 -0.09719401 10.83800758 -0.625 9.25 C-0.92664063 8.36828125 -1.22828125 7.4865625 -1.5390625 6.578125 C-2.07333427 3.58982529 -1.62433191 2.50076998 0 0 Z " fill="#7426F2" transform="translate(100,83)" data-index="77"></path>
<path d="M0 0 C0.33 0 0.66 0 1 0 C1 1.65 1 3.3 1 5 C1.66 5 2.32 5 3 5 C3.33 4.34 3.66 3.68 4 3 C4 3.66 4 4.32 4 5 C4.66 5 5.32 5 6 5 C6.33 3.35 6.66 1.7 7 0 C8.15941038 3.47823115 7.70820884 5.45895578 7 9 C6.01 8.67 5.02 8.34 4 8 C3.855625 8.763125 3.71125 9.52625 3.5625 10.3125 C3 13 3 13 2 16 C1.34 16 0.68 16 0 16 C0 10.72 0 5.44 0 0 Z " fill="#644BF9" transform="translate(75,51)" data-index="78"></path>
<path d="M0 0 C6.93 0 13.86 0 21 0 C18 3 18 3 16.00708008 3.34057617 C15.26868896 3.32486572 14.53029785 3.30915527 13.76953125 3.29296875 C12.96708984 3.28330078 12.16464844 3.27363281 11.33789062 3.26367188 C10.50451172 3.23853516 9.67113281 3.21339844 8.8125 3.1875 C7.96751953 3.17396484 7.12253906 3.16042969 6.25195312 3.14648438 C4.16769616 3.11115799 2.08376723 3.05735139 0 3 C0 2.01 0 1.02 0 0 Z " fill="#FDFBFD" transform="translate(174,172)" data-index="79"></path>
<path d="M0 0 C0 1.98 0 3.96 0 6 C-7.92 6 -15.84 6 -24 6 C-24 5.67 -24 5.34 -24 5 C-17.73 4.67 -11.46 4.34 -5 4 C-5 3.34 -5 2.68 -5 2 C-10.61 2 -16.22 2 -22 2 C-22 1.67 -22 1.34 -22 1 C-18.70837401 0.83252349 -15.41669287 0.66615639 -12.125 0.5 C-11.18785156 0.45230469 -10.25070313 0.40460938 -9.28515625 0.35546875 C-8.38925781 0.31035156 -7.49335938 0.26523438 -6.5703125 0.21875 C-5.74289551 0.17685547 -4.91547852 0.13496094 -4.06298828 0.09179688 C-2.70965236 0.03157743 -1.35467505 0 0 0 Z " fill="#8A50F7" transform="translate(198,166)" data-index="80"></path>
<path d="M0 0 C6.27 0 12.54 0 19 0 C19.33 0.99 19.66 1.98 20 3 C13.4 3 6.8 3 0 3 C0 2.01 0 1.02 0 0 Z " fill="#FBF8FC" transform="translate(39,172)" data-index="81"></path>
<path d="M0 0 C6.27 0 12.54 0 19 0 C18.67 0.99 18.34 1.98 18 3 C12.06 3 6.12 3 0 3 C0 2.01 0 1.02 0 0 Z " fill="#FEFAFD" transform="translate(174,182)" data-index="82"></path>
<path d="M0 0 C6.27 0 12.54 0 19 0 C18.67 0.99 18.34 1.98 18 3 C12.06 3 6.12 3 0 3 C0 2.01 0 1.02 0 0 Z " fill="#FDFAFB" transform="translate(40,182)" data-index="83"></path>
<path d="M0 0 C0.66 0.33 1.32 0.66 2 1 C2 2.33333333 2 3.66666667 2 5 C2.65257873 6.672233 3.31867549 8.33927151 4 10 C2.68 11.32 1.36 12.64 0 14 C-1.5 13 -1.5 13 -3 11 C-3.44286739 8.27466223 -3.44286739 5.72533777 -3 3 C-1.5 1 -1.5 1 0 0 Z " fill="#4996F8" transform="translate(91,17)" data-index="84"></path>
<path d="M0 0 C0.66 0 1.32 0 2 0 C3.585869 3.171738 3.37866445 6.63513822 3.5625 10.125 C3.60568359 10.87910156 3.64886719 11.63320312 3.69335938 12.41015625 C3.7994832 14.27321888 3.90025001 16.13658524 4 18 C2.68 18 1.36 18 0 18 C0 12.06 0 6.12 0 0 Z " fill="#6C24FD" transform="translate(149,173)" data-index="85"></path>
<path d="M0 0 C1.32 0 2.64 0 4 0 C4 0.66 4 1.32 4 2 C4.99 2.33 5.98 2.66 7 3 C7.66 2.01 8.32 1.02 9 0 C9 8.25 9 16.5 9 25 C8.67 25 8.34 25 8 25 C7.67 20.05 7.34 15.1 7 10 C5.02 10 3.04 10 1 10 C1 9.67 1 9.34 1 9 C2.65 9 4.3 9 6 9 C5.89830839 6.05272465 5.89830839 6.05272465 5 3 C2.53744315 1.54708727 2.53744315 1.54708727 0 1 C0 0.67 0 0.34 0 0 Z " fill="#CCB6FA" transform="translate(224,166)" data-index="86"></path>
<path d="M0 0 C1.98 0 3.96 0 6 0 C6 2.64 6 5.28 6 8 C4.35 8.66 2.7 9.32 1 10 C-1 8 -1 8 -1.1875 5 C-1 2 -1 2 0 0 Z " fill="#63B1F9" transform="translate(182,64)" data-index="87"></path>
<path d="M0 0 C4.7381224 2.46017894 7.99520204 4.43270711 11 9 C11 9.66 11 10.32 11 11 C8.36 11 5.72 11 3 11 C3 8.36 3 5.72 3 3 C2.01 2.67 1.02 2.34 0 2 C0 1.34 0 0.68 0 0 Z " fill="#50B6F3" transform="translate(141,37)" data-index="88"></path>
<path d="M0 0 C0.12375 0.639375 0.2475 1.27875 0.375 1.9375 C0.684375 2.9584375 0.684375 2.9584375 1 4 C1.66 4.33 2.32 4.66 3 5 C2.79375 5.61875 2.5875 6.2375 2.375 6.875 C2.25125 7.57625 2.1275 8.2775 2 9 C2.66 9.66 3.32 10.32 4 11 C1.03 11 -1.94 11 -5 11 C-4.625 8.0625 -4.625 8.0625 -4 5 C-3.34 4.67 -2.68 4.34 -2 4 C-0.86649466 1.98330173 -0.86649466 1.98330173 0 0 Z " fill="#FCFCFC" transform="translate(97,180)" data-index="89"></path>
<path d="M0 0 C3 1 3 1 5 3 C5.3125 5.4375 5.3125 5.4375 5 8 C3.5 9.8125 3.5 9.8125 2 11 C1.01 10.67 0.02 10.34 -1 10 C-1 7 -1 7 0 4 C-0.66 4 -1.32 4 -2 4 C-2 3.01 -2 2.02 -2 1 C-1.34 0.67 -0.68 0.34 0 0 Z " fill="#38B7F9" transform="translate(98,11)" data-index="90"></path>
<path d="M0 0 C0.66 0.33 1.32 0.66 2 1 C2 4.63 2 8.26 2 12 C3.98 12 5.96 12 8 12 C8 12.66 8 13.32 8 14 C1.59296098 13.51644989 1.59296098 13.51644989 -0.9375 11.3125 C-2.30533635 8.33544441 -2.34506219 6.24358463 -2 3 C-1.34 2.01 -0.68 1.02 0 0 Z " fill="#E9F8FA" transform="translate(165,15)" data-index="91"></path>
<path d="M0 0 C0.66 0.66 1.32 1.32 2 2 C2.99 1.34 3.98 0.68 5 0 C5.33 3.63 5.66 7.26 6 11 C4.35 11 2.7 11 1 11 C-0.20272819 8.59454362 -0.10071472 7.05003047 -0.0625 4.375 C-0.05347656 3.55773437 -0.04445313 2.74046875 -0.03515625 1.8984375 C-0.02355469 1.27195313 -0.01195313 0.64546875 0 0 Z " fill="#7939F9" transform="translate(127,174)" data-index="92"></path>
<path d="M0 0 C0.66 0.33 1.32 0.66 2 1 C1.67 1.99 1.34 2.98 1 4 C1.31710938 4.86882813 1.63421875 5.73765625 1.9609375 6.6328125 C3.28237431 10.9150626 2.99931076 14.45813304 2.625 18.875 C2.56828125 19.65875 2.5115625 20.4425 2.453125 21.25 C2.31282139 23.16748262 2.15789804 25.08388599 2 27 C1.67 27 1.34 27 1 27 C0.95101562 25.96101563 0.90203125 24.92203125 0.8515625 23.8515625 C0.44790554 16.08046683 -0.12216201 8.58427772 -2 1 C-1.34 0.67 -0.68 0.34 0 0 Z " fill="#7CD8F4" transform="translate(179,37)" data-index="93"></path>
<path d="M0 0 C0.69287109 0.00451172 1.38574219 0.00902344 2.09960938 0.01367188 C3.79561068 0.02536844 5.49156703 0.04330076 7.1875 0.0625 C6.8575 1.0525 6.5275 2.0425 6.1875 3.0625 C3.9597603 3.28557542 1.73018636 3.49038178 -0.5 3.6875 C-2.36205078 3.86152344 -2.36205078 3.86152344 -4.26171875 4.0390625 C-7.74130169 4.06203004 -9.73734721 3.60301631 -12.8125 2.0625 C-12.8125 1.7325 -12.8125 1.4025 -12.8125 1.0625 C-8.52952469 0.00630997 -4.38264354 -0.05452092 0 0 Z " fill="#53DFF3" transform="translate(132.8125,-0.0625)" data-index="94"></path>
<path d="M0 0 C1.65 0 3.3 0 5 0 C5 2.64 5 5.28 5 8 C3.68 7.67 2.36 7.34 1 7 C0.67 7.99 0.34 8.98 0 10 C0 6.7 0 3.4 0 0 Z " fill="#6213F7" transform="translate(233,166)" data-index="95"></path>
<path d="M0 0 C0 0.99 0 1.98 0 3 C-0.99 3.495 -0.99 3.495 -2 4 C-2.33 4.99 -2.66 5.98 -3 7 C-4.65 7.33 -6.3 7.66 -8 8 C-7.34 6.68 -6.68 5.36 -6 4 C-6.33 3.67 -6.66 3.34 -7 3 C-7.66 2.34 -8.32 1.68 -9 1 C-5.57367167 -0.61798838 -3.61944899 -1.34053666 0 0 Z " fill="#6844FC" transform="translate(174,92)" data-index="96"></path>
<path d="M0 0 C1.75282525 2.68079156 2.01311136 3.86888639 1.6875 7.125 C1 10 1 10 0 12 C-0.66 12 -1.32 12 -2 12 C-2 12.66 -2 13.32 -2 14 C-2.99 14.33 -3.98 14.66 -5 15 C-3.33333333 10 -1.66666667 5 0 0 Z " fill="#E3EEF8" transform="translate(187,72)" data-index="97"></path>
<path d="M0 0 C2 2 2 2 2 5 C-2.72224516 3.46527032 -7.35855331 1.76054874 -12 0 C-12 -0.33 -12 -0.66 -12 -1 C-7.31967018 -2.11436424 -4.42589268 -1.91118093 0 0 Z " fill="#51D8F1" transform="translate(156,11)" data-index="98"></path>
<path d="M0 0 C-3.45083995 2.30055997 -4.87175728 2.27010256 -8.9375 2.25 C-10.49791016 2.25773437 -10.49791016 2.25773437 -12.08984375 2.265625 C-14.93098495 2.00629936 -16.58707634 1.46519702 -19 0 C-12.59345955 -1.28130809 -6.39375619 -1.59843905 0 0 Z " fill="#E6D5F5" transform="translate(141,105)" data-index="99"></path>
<path d="M0 0 C0.66 0 1.32 0 2 0 C1.67 2.64 1.34 5.28 1 8 C-0.8125 8.625 -0.8125 8.625 -3 9 C-3.99 8.34 -4.98 7.68 -6 7 C-5.04882866 5.8274869 -4.08882991 4.66212985 -3.125 3.5 C-2.59132813 2.8503125 -2.05765625 2.200625 -1.5078125 1.53125 C-0.76144531 0.77328125 -0.76144531 0.77328125 0 0 Z " fill="#579AF3" transform="translate(118,39)" data-index="100"></path>
<path d="M0 0 C0.33 0.33 0.66 0.66 1 1 C3.19050021 0.90982004 5.378466 0.75333792 7.5625 0.5625 C9.35880859 0.40974609 9.35880859 0.40974609 11.19140625 0.25390625 C12.11824219 0.17011719 13.04507813 0.08632813 14 0 C14 0.99 14 1.98 14 3 C7.07 3 0.14 3 -7 3 C-7 2.34 -7 1.68 -7 1 C-3.375 -1.125 -3.375 -1.125 0 0 Z " fill="#3FBBF0" transform="translate(127,37)" data-index="101"></path>
<path d="M0 0 C0.66 0.99 1.32 1.98 2 3 C1.67 4.32 1.34 5.64 1 7 C-4.61 6.34 -10.22 5.68 -16 5 C-16 4.34 -16 3.68 -16 3 C-15.18015625 3.03480469 -14.3603125 3.06960937 -13.515625 3.10546875 C-11.89914063 3.14607422 -11.89914063 3.14607422 -10.25 3.1875 C-9.18265625 3.22230469 -8.1153125 3.25710937 -7.015625 3.29296875 C-3.69972145 2.97082786 -2.40983327 2.22851086 0 0 Z " fill="#DFF4FC" transform="translate(180,30)" data-index="102"></path>
<path d="M0 0 C0.66 0 1.32 0 2 0 C3.60725635 3.21451269 3.05748185 6.43612536 3 10 C1.68 10 0.36 10 -1 10 C-1.02689216 8.52093108 -1.04634621 7.04172517 -1.0625 5.5625 C-1.07410156 4.73878906 -1.08570313 3.91507813 -1.09765625 3.06640625 C-1 1 -1 1 0 0 Z " fill="#6C21FC" transform="translate(234,181)" data-index="103"></path>
<path d="M0 0 C1.67542976 0.28604898 3.34385343 0.61781233 5 1 C4.39816251 3.02045442 3.72693904 5.02111039 3 7 C2.01 7.495 2.01 7.495 1 8 C-0.5625 6.75 -0.5625 6.75 -2 5 C-1.74853421 2.86254078 -1.54074221 1.54074221 0 0 Z " fill="#6A7CF7" transform="translate(148,64)" data-index="104"></path>
<path d="M0 0 C1.8125 0.125 1.8125 0.125 4 1 C5.95320589 4.20883825 7 6.2205439 7 10 C6.01 10 5.02 10 4 10 C3.67 8.02 3.34 6.04 3 4 C2.34 4.66 1.68 5.32 1 6 C0.01 4.68 -0.98 3.36 -2 2 C-1.34 2 -0.68 2 0 2 C0 1.34 0 0.68 0 0 Z " fill="#4DD5EA" transform="translate(177,12)" data-index="105"></path>
<path d="M0 0 C5.28 0 10.56 0 16 0 C15.34 0.66 14.68 1.32 14 2 C14 2.99 14 3.98 14 5 C9.38 3.68 4.76 2.36 0 1 C0 0.67 0 0.34 0 0 Z " fill="#EAFAFA" transform="translate(140,0)" data-index="106"></path>
<path d="M0 0 C3 1 3 1 4.36328125 2.51953125 C6.58762022 4.53152282 8.23142363 4.49554699 11.1875 4.6875 C12.08855469 4.75324219 12.98960938 4.81898438 13.91796875 4.88671875 C14.60503906 4.92410156 15.29210938 4.96148437 16 5 C16 5.33 16 5.66 16 6 C11.05 6 6.1 6 1 6 C0.67 6.66 0.34 7.32 0 8 C0 5.36 0 2.72 0 0 Z " fill="#8349FB" transform="translate(6,166)" data-index="107"></path>
<path d="M0 0 C0.33 0.66 0.66 1.32 1 2 C3.32156597 2.40729228 5.6568787 2.74438677 8 3 C8 3.33 8 3.66 8 4 C7.21625 4.103125 6.4325 4.20625 5.625 4.3125 C2.66954819 4.77595022 2.66954819 4.77595022 1 8 C0.01 8.495 0.01 8.495 -1 9 C-1.66 6.69 -2.32 4.38 -3 2 C-2.01 2 -1.02 2 0 2 C0 1.34 0 0.68 0 0 Z " fill="#F9FBF2" transform="translate(200,161)" data-index="108"></path>
<path d="M0 0 C0.33 0.66 0.66 1.32 1 2 C1.66 2.33 2.32 2.66 3 3 C2.67 6.96 2.34 10.92 2 15 C1.67 15 1.34 15 1 15 C1 12.03 1 9.06 1 6 C-0.65 6 -2.3 6 -4 6 C-3.67 5.01 -3.34 4.02 -3 3 C-2.34 3 -1.68 3 -1 3 C-0.67 2.01 -0.34 1.02 0 0 Z " fill="#EDE6F8" transform="translate(237,160)" data-index="109"></path>
<path d="M0 0 C0.33 0.99 0.66 1.98 1 3 C1.99 2.67 2.98 2.34 4 2 C6.6875 2.9375 6.6875 2.9375 9 4 C7.35 5.98 5.7 7.96 4 10 C1.41050731 8.70525365 1.03964236 7.67336607 0 5 C-0.125 2.25 -0.125 2.25 0 0 Z " fill="#F4ECF9" transform="translate(78,78)" data-index="110"></path>
<path d="M0 0 C6.75 -0.125 6.75 -0.125 9 1 C8.67 1.99 8.34 2.98 8 4 C2.25 5.125 2.25 5.125 0 4 C0 2.68 0 1.36 0 0 Z " fill="#7021F7" transform="translate(90,81)" data-index="111"></path>
<path d="M0 0 C1.32 0 2.64 0 4 0 C4.66 0.66 5.32 1.32 6 2 C6.99 1.67 7.98 1.34 9 1 C8.67 2.65 8.34 4.3 8 6 C5.6875 6.6875 5.6875 6.6875 3 7 C1.1875 5.8125 1.1875 5.8125 0 4 C0 2.68 0 1.36 0 0 Z " fill="#668AF8" transform="translate(176,77)" data-index="112"></path>
<path d="M0 0 C0.99 0.33 1.98 0.66 3 1 C3.99 0.67 4.98 0.34 6 0 C8.70123106 0.16011121 11.31875231 0.60440608 14 1 C14 1.33 14 1.66 14 2 C13.39671875 2.03738281 12.7934375 2.07476562 12.171875 2.11328125 C6.00632228 2.56253341 6.00632228 2.56253341 1 6 C1 5.34 1 4.68 1 4 C-0.32 4 -1.64 4 -3 4 C-2.67 3.01 -2.34 2.02 -2 1 C-1.34 0.67 -0.68 0.34 0 0 Z " fill="#6018F3" transform="translate(106,169)" data-index="113"></path>
<path d="M0 0 C0.33 0.99 0.66 1.98 1 3 C-4.28 3 -9.56 3 -15 3 C-14.67 2.34 -14.34 1.68 -14 1 C-12.109375 0.5859375 -12.109375 0.5859375 -9.75 0.375 C-8.94175781 0.30152344 -8.13351563 0.22804687 -7.30078125 0.15234375 C-4.86004606 -0.0092669 -2.445326 -0.07888148 0 0 Z " fill="#7C42F8" transform="translate(221,169)" data-index="114"></path>
<path d="M0 0 C2 3 2 3 1.625 5.1875 C1.41875 5.785625 1.2125 6.38375 1 7 C0.67 6.34 0.34 5.68 0 5 C-0.66 6.32 -1.32 7.64 -2 9 C-2.66 9 -3.32 9 -4 9 C-4 6.36 -4 3.72 -4 1 C-2.68 0.67 -1.36 0.34 0 0 Z " fill="#9F34F9" transform="translate(84,89)" data-index="115"></path>
<path d="M0 0 C0.33 0 0.66 0 1 0 C1.04898438 0.66386719 1.09796875 1.32773437 1.1484375 2.01171875 C1.71125812 8.7112236 1.71125812 8.7112236 4 15 C2.35 15.33 0.7 15.66 -1 16 C-0.67 10.72 -0.34 5.44 0 0 Z " fill="#DBF4F8" transform="translate(157,16)" data-index="116"></path>
<path d="M0 0 C0.99 0.33 1.98 0.66 3 1 C2.67 2.98 2.34 4.96 2 7 C2.99 7.33 3.98 7.66 5 8 C3.02 8.99 3.02 8.99 1 10 C-0.33333333 7.33333333 -1.66666667 4.66666667 -3 2 C-2.01 1.34 -1.02 0.68 0 0 Z " fill="#37C7F0" transform="translate(102,8)" data-index="117"></path>
<path d="M0 0 C0.33 0.99 0.66 1.98 1 3 C1.99 3 2.98 3 4 3 C4 3.66 4 4.32 4 5 C5.32 5.33 6.64 5.66 8 6 C3.38 6 -1.24 6 -6 6 C-4.35 4.68 -2.7 3.36 -1 2 C-0.67 1.34 -0.34 0.68 0 0 Z " fill="#F7F0F6" transform="translate(30,185)" data-index="118"></path>
<path d="M0 0 C-5.12117396 3.14217141 -8.63023098 3.27444295 -14.375 2.6875 C-15.11105469 2.62626953 -15.84710938 2.56503906 -16.60546875 2.50195312 C-18.405013 2.35004355 -20.20276611 2.17716201 -22 2 C-22 1.67 -22 1.34 -22 1 C-20.46279297 0.90912109 -20.46279297 0.90912109 -18.89453125 0.81640625 C-17.53384305 0.73194974 -16.17316657 0.64730433 -14.8125 0.5625 C-14.13896484 0.52318359 -13.46542969 0.48386719 -12.77148438 0.44335938 C-9.83630619 0.25722612 -7.01845693 0.00385254 -4.13671875 -0.59765625 C-2 -1 -2 -1 0 0 Z " fill="#ECD9FB" transform="translate(148,114)" data-index="119"></path>
<path d="M0 0 C-2.31 2.31 -4.62 4.62 -7 7 C-7.99 6.67 -8.98 6.34 -10 6 C-8.20404732 1.26521567 -5.07984355 -1.69328118 0 0 Z " fill="#F7F5F7" transform="translate(170,89)" data-index="120"></path>
<path d="M0 0 C2 3 2 3 3 5 C5.32156597 5.40729228 7.6568787 5.74438677 10 6 C10 6.99 10 7.98 10 9 C3.61657459 8.39779006 3.61657459 8.39779006 1.0625 6.75 C-0.35440053 4.41628148 -0.21718696 2.67863922 0 0 Z " fill="#F5ECF5" transform="translate(86,93)" data-index="121"></path>
<path d="M0 0 C2.01822917 0.06510417 4.03645833 0.13020833 6.0546875 0.1953125 C4.0746875 2.5053125 2.0946875 4.8153125 0.0546875 7.1953125 C-0.2753125 5.8753125 -0.6053125 4.5553125 -0.9453125 3.1953125 C-1.9353125 2.8653125 -2.9253125 2.5353125 -3.9453125 2.1953125 C-1.9453125 0.1953125 -1.9453125 0.1953125 0 0 Z " fill="#601CF2" transform="translate(97.9453125,165.8046875)" data-index="122"></path>
<path d="M0 0 C4.95 1.98 9.9 3.96 15 6 C10.98772894 7.00306776 10.11171451 7.01825679 6.4375 5.75 C5.29087891 5.37101562 5.29087891 5.37101562 4.12109375 4.984375 C1.8932147 3.95044218 0.61075594 2.8320419 -1 1 C-0.67 0.67 -0.34 0.34 0 0 Z " fill="#7214F6" transform="translate(105,99)" data-index="123"></path>
<path d="M0 0 C0.33 0 0.66 0 1 0 C1.33 2.31 1.66 4.62 2 7 C2.66 7 3.32 7 4 7 C3.25 12.75 3.25 12.75 1 15 C-1.39306591 5.19270308 -1.39306591 5.19270308 -1 1 C-0.67 0.67 -0.34 0.34 0 0 Z " fill="#578BF2" transform="translate(87,21)" data-index="124"></path>
<path d="M0 0 C0.33 0 0.66 0 1 0 C1 2.31 1 4.62 1 7 C1.66 7.33 2.32 7.66 3 8 C2.01 9.485 2.01 9.485 1 11 C0.01 10.67 -0.98 10.34 -2 10 C-2 7.69 -2 5.38 -2 3 C-1.34 3 -0.68 3 0 3 C0 2.01 0 1.02 0 0 Z " fill="#6E24FB" transform="translate(203,175)" data-index="125"></path>
<path d="M0 0 C0.66 0 1.32 0 2 0 C2.33 1.98 2.66 3.96 3 6 C1.02 6 -0.96 6 -3 6 C-2.42655063 3.13275314 -2.1385485 2.1385485 0 0 Z " fill="#F6F1FA" transform="translate(261,160)" data-index="126"></path>
<path d="M0 0 C0.66 0.99 1.32 1.98 2 3 C1.69728039 4.34061543 1.36162029 5.67405895 1 7 C1.37907282 9.18703385 1.37907282 9.18703385 2 11 C-0.42716947 10.06045053 -1.71970832 9.54189724 -2.9375 7.1875 C-3.02525652 4.11602165 -1.71778904 2.47361622 0 0 Z " fill="#9916F5" transform="translate(84,93)" data-index="127"></path>
<path d="M0 0 C2.43929746 1.92576115 4.80090595 3.80090595 7 6 C4.03 6 1.06 6 -2 6 C-2 4.68 -2 3.36 -2 2 C-1.34 2 -0.68 2 0 2 C0 1.34 0 0.68 0 0 Z " fill="#F6EFF6" transform="translate(200,185)" data-index="128"></path>
<path d="M0 0 C0.66 0.33 1.32 0.66 2 1 C1.79375 1.680625 1.5875 2.36125 1.375 3.0625 C0.89936171 6.78833331 1.82330851 9.46992554 3 13 C1.68 12.34 0.36 11.68 -1 11 C-1.02688151 9.35425434 -1.04634123 7.70838587 -1.0625 6.0625 C-1.07410156 5.14597656 -1.08570312 4.22945312 -1.09765625 3.28515625 C-1 1 -1 1 0 0 Z " fill="#F6EEF6" transform="translate(109,172)" data-index="129"></path>
<path d="M0 0 C1.65 0 3.3 0 5 0 C6.35439668 2.70879335 6.06501451 5.00933268 6 8 C4.66666667 8 3.33333333 8 2 8 C2.04125 7.05125 2.0825 6.1025 2.125 5.125 C2.34973818 1.89755144 2.34973818 1.89755144 0 0 Z " fill="#7432FD" transform="translate(102,173)" data-index="130"></path>
<path d="M0 0 C0 0.99 0 1.98 0 3 C-3.67410785 4.17571451 -7.16929183 4.07366746 -11 4 C-11.33 3.34 -11.66 2.68 -12 2 C-8.04 1.34 -4.08 0.68 0 0 Z " fill="#6A26FB" transform="translate(24,166)" data-index="131"></path>
<path d="M0 0 C1.98 0 3.96 0 6 0 C6.33 1.65 6.66 3.3 7 5 C9.64 5 12.28 5 15 5 C15 5.33 15 5.66 15 6 C11.7 6 8.4 6 5 6 C4.67 4.68 4.34 3.36 4 2 C3.01 1.67 2.02 1.34 1 1 C0.67 1.66 0.34 2.32 0 3 C0 2.01 0 1.02 0 0 Z " fill="#7636FA" transform="translate(33,183)" data-index="132"></path>
<path d="M0 0 C-0.33 0.99 -0.66 1.98 -1 3 C0.32 3.66 1.64 4.32 3 5 C0.36 5.33 -2.28 5.66 -5 6 C-5 5.01 -5 4.02 -5 3 C-5.66 2.34 -6.32 1.68 -7 1 C-2.25 0 -2.25 0 0 0 Z " fill="#7529F9" transform="translate(148,104)" data-index="133"></path>
<path d="M0 0 C3.465 1.98 3.465 1.98 7 4 C5.68 5.32 4.36 6.64 3 8 C2.34 7.67 1.68 7.34 1 7 C0.59270772 4.67843403 0.25561323 2.3431213 0 0 Z " fill="#9D28F3" transform="translate(84,97)" data-index="134"></path>
<path d="M0 0 C0.33 0 0.66 0 1 0 C1.02578125 0.73605469 1.0515625 1.47210938 1.078125 2.23046875 C1.49060043 9.91941156 1.49060043 9.91941156 6 16 C5.01 16 4.02 16 3 16 C3 15.34 3 14.68 3 14 C2.01 14 1.02 14 0 14 C0 9.38 0 4.76 0 0 Z " fill="#DECBFB" transform="translate(31,174)" data-index="135"></path>
<path d="M0 0 C-0.33 1.98 -0.66 3.96 -1 6 C-2.32 5.34 -3.64 4.68 -5 4 C-5 3.34 -5 2.68 -5 2 C-5.66 2 -6.32 2 -7 2 C-5.26578631 -1.46842738 -3.40984787 -1.13661596 0 0 Z " fill="#F9FAF1" transform="translate(233,164)" data-index="136"></path>
<path d="M0 0 C5.94 0 11.88 0 18 0 C18 0.33 18 0.66 18 1 C16.96359375 1.04898438 15.9271875 1.09796875 14.859375 1.1484375 C13.48955792 1.22349597 12.11976752 1.29904247 10.75 1.375 C10.06808594 1.4059375 9.38617188 1.436875 8.68359375 1.46875 C5.01260962 1.68259374 2.13748384 2.01077055 -1 4 C-0.67 2.68 -0.34 1.36 0 0 Z " fill="#EEDAFD" transform="translate(203,165)" data-index="137"></path>
<path d="M0 0 C1.65 0.33 3.3 0.66 5 1 C5 1.66 5 2.32 5 3 C4.34 3 3.68 3 3 3 C3 3.66 3 4.32 3 5 C-0.28976808 6.09658936 -1.71303767 5.79953138 -5 5 C-5 4.67 -5 4.34 -5 4 C-3.35 4 -1.7 4 0 4 C0 2.68 0 1.36 0 0 Z " fill="#65D8EB" transform="translate(174,9)" data-index="138"></path>
<path d="M0 0 C1.32 1.32 2.64 2.64 4 4 C3.67 4.66 3.34 5.32 3 6 C2.7724985 7.87056791 2.59037189 9.74685958 2.4375 11.625 C2.35371094 12.62789062 2.26992187 13.63078125 2.18359375 14.6640625 C2.12300781 15.43492187 2.06242188 16.20578125 2 17 C1.67 17 1.34 17 1 17 C0.67 11.39 0.34 5.78 0 0 Z " fill="#D2C3F8" transform="translate(198,166)" data-index="139"></path>
<path d="M0 0 C1 2 1 2 0.4375 4.4375 C-1.46156802 7.82279516 -3.41887093 8.6570766 -7 10 C-7.66 9.67 -8.32 9.34 -9 9 C-7.6078125 7.88625 -7.6078125 7.88625 -6.1875 6.75 C-3.72873042 4.70974439 -1.78352451 2.67528677 0 0 Z " fill="#EEE9F8" transform="translate(177,93)" data-index="140"></path>
<path d="M0 0 C3 3.75 3 3.75 3 6 C3.66 6 4.32 6 5 6 C5.33 7.32 5.66 8.64 6 10 C4.02 9.34 2.04 8.68 0 8 C0 5.36 0 2.72 0 0 Z " fill="#EADBF9" transform="translate(106,92)" data-index="141"></path>
<path d="M0 0 C1.65 0 3.3 0 5 0 C3.02 2.31 1.04 4.62 -1 7 C-1.66 6.67 -2.32 6.34 -3 6 C-2 4 -1 2 0 0 Z " fill="#EDF7F6" transform="translate(88,15)" data-index="142"></path>
<path d="M0 0 C1.79244141 0.01740234 1.79244141 0.01740234 3.62109375 0.03515625 C5.41740234 0.04869141 5.41740234 0.04869141 7.25 0.0625 C8.17683594 0.07410156 9.10367188 0.08570313 10.05859375 0.09765625 C10.05859375 0.42765625 10.05859375 0.75765625 10.05859375 1.09765625 C8.29103081 1.4877805 6.51934592 1.85926605 4.74609375 2.22265625 C3.75996094 2.43148438 2.77382812 2.6403125 1.7578125 2.85546875 C-0.94140625 3.09765625 -0.94140625 3.09765625 -3.94140625 1.09765625 C-2.94140625 0.09765625 -2.94140625 0.09765625 0 0 Z " fill="#EEFAFC" transform="translate(114.94140625,-0.09765625)" data-index="143"></path>
<path d="M0 0 C1.16959987 0.97566112 2.33561177 1.955625 3.5 2.9375 C4.1496875 3.48277344 4.799375 4.02804688 5.46875 4.58984375 C5.9740625 5.05519531 6.479375 5.52054688 7 6 C7 6.33 7 6.66 7 7 C4.69 7 2.38 7 0 7 C0 4.69 0 2.38 0 0 Z " fill="#F9EFF5" transform="translate(0,184)" data-index="144"></path>
<path d="M0 0 C0 2.97 0 5.94 0 9 C-0.99 9 -1.98 9 -3 9 C-3 6.36 -3 3.72 -3 1 C-1 0 -1 0 0 0 Z " fill="#651AFA" transform="translate(261,181)" data-index="145"></path>
<path d="M0 0 C0.66 0 1.32 0 2 0 C2 0.99 2 1.98 2 3 C3.98 3 5.96 3 8 3 C7.67 3.99 7.34 4.98 7 6 C6.01 6.33 5.02 6.66 4 7 C2 5.1875 2 5.1875 0 3 C0 2.01 0 1.02 0 0 Z " fill="#6851F5" transform="translate(136,72)" data-index="146"></path>
<path d="M0 0 C0.66 1.32 1.32 2.64 2 4 C0 6 0 6 -3.625 6.125 C-4.73875 6.08375 -5.8525 6.0425 -7 6 C-6.01 5.34 -5.02 4.68 -4 4 C-2.64748503 2.68612831 -1.31054623 1.35573748 0 0 Z " fill="#F0E5FB" transform="translate(132,185)" data-index="147"></path>
<path d="M0 0 C-1.04874998 2.62187494 -1.64931313 3.79371361 -4.125 5.25 C-4.74375 5.4975 -5.3625 5.745 -6 6 C-5.625 3.5625 -5.625 3.5625 -5 1 C-3 0 -3 0 0 0 Z " fill="#E7DFF7" transform="translate(94,168)" data-index="148"></path>
<path d="M0 0 C0.66 0 1.32 0 2 0 C1.125 7.75 1.125 7.75 0 10 C-0.66 10 -1.32 10 -2 10 C-2.33 8.68 -2.66 7.36 -3 6 C-2.01 6 -1.02 6 0 6 C0 4.02 0 2.04 0 0 Z " fill="#6C23FD" transform="translate(28,176)" data-index="149"></path>
<path d="M0 0 C0.33 0 0.66 0 1 0 C1.33 3.3 1.66 6.6 2 10 C1.01 10.33 0.02 10.66 -1 11 C-1.125 3.375 -1.125 3.375 0 0 Z " fill="#7579F3" transform="translate(110,50)" data-index="150"></path>
<path d="M0 0 C1.4606285 2.64738916 2 3.89448334 2 7 C1.34 7 0.68 7 0 7 C0 8.65 0 10.3 0 12 C-0.33 12 -0.66 12 -1 12 C-1.02687279 10.18757948 -1.04633715 8.37504767 -1.0625 6.5625 C-1.07410156 5.55316406 -1.08570312 4.54382813 -1.09765625 3.50390625 C-1 1 -1 1 0 0 Z " fill="#F9ECF6" transform="translate(93,178)" data-index="151"></path>
<path d="M0 0 C2.64 0 5.28 0 8 0 C7.67 1.65 7.34 3.3 7 5 C5.68 4.67 4.36 4.34 3 4 C3.66 4 4.32 4 5 4 C3.74458443 1.48916886 2.49936512 1.12874554 0 0 Z " fill="#F9F8F3" transform="translate(218,161)" data-index="152"></path>
<path d="M0 0 C0.66 0.33 1.32 0.66 2 1 C2 2.32 2 3.64 2 5 C2.66 5.33 3.32 5.66 4 6 C3.01 6.33 2.02 6.66 1 7 C-0.37562854 5.71034824 -1.70766393 4.37310707 -3 3 C-3 2.34 -3 1.68 -3 1 C-2.01 0.67 -1.02 0.34 0 0 Z " fill="#F6F1F4" transform="translate(34,161)" data-index="153"></path>
<path d="M0 0 C-2.35953094 2.35953094 -3.77895617 2.49141413 -7 3 C-7 2.34 -7 1.68 -7 1 C-7.66 0.67 -8.32 0.34 -9 0 C-5.52176885 -1.15941038 -3.54104422 -0.70820884 0 0 Z " fill="#F7F1F0" transform="translate(105,108)" data-index="154"></path>
<path d="M0 0 C0.33 0.66 0.66 1.32 1 2 C1.99 1.67 2.98 1.34 4 1 C4 3.31 4 5.62 4 8 C3.01 6.68 2.02 5.36 1 4 C1 4.99 1 5.98 1 7 C0.34 7 -0.32 7 -1 7 C-0.67 4.69 -0.34 2.38 0 0 Z " fill="#6811F9" transform="translate(102,90)" data-index="155"></path>
<path d="M0 0 C1.65 0.99 3.3 1.98 5 3 C4.01 4.485 4.01 4.485 3 6 C-1.875 4.25 -1.875 4.25 -3 2 C-2.01 2 -1.02 2 0 2 C0 1.34 0 0.68 0 0 Z " fill="#3B9CED" transform="translate(93,19)" data-index="156"></path>
<path d="M0 0 C0.66 0 1.32 0 2 0 C2 2.31 2 4.62 2 7 C1.01 7 0.02 7 -1 7 C-1.04254356 5.00045254 -1.04080783 2.99958364 -1 1 C-0.67 0.67 -0.34 0.34 0 0 Z " fill="#FDF6FD" transform="translate(100,175)" data-index="157"></path>
<path d="M0 0 C4 0 4 0 6 1 C5.67 1.66 5.34 2.32 5 3 C5.66 3.33 6.32 3.66 7 4 C6.67 4.99 6.34 5.98 6 7 C4.02 4.69 2.04 2.38 0 0 Z " fill="#5B17F3" transform="translate(78,170)" data-index="158"></path>
<path d="M0 0 C0.33 0.99 0.66 1.98 1 3 C-0.4375 5.1875 -0.4375 5.1875 -2 7 C-3.32 6.67 -4.64 6.34 -6 6 C-4.02 4.02 -2.04 2.04 0 0 Z " fill="#E1D1F3" transform="translate(104,166)" data-index="159"></path>
<path d="M0 0 C1.84765625 0.33984375 1.84765625 0.33984375 4.0625 0.9375 C5.16271484 1.22947266 5.16271484 1.22947266 6.28515625 1.52734375 C7.13400391 1.76130859 7.13400391 1.76130859 8 2 C8 2.33 8 2.66 8 3 C5.36 3.33 2.72 3.66 0 4 C-0.33 3.01 -0.66 2.02 -1 1 C-0.67 0.67 -0.34 0.34 0 0 Z " fill="#F8F1FC" transform="translate(120,114)" data-index="160"></path>
<path d="M0 0 C0.33 0.99 0.66 1.98 1 3 C-0.125 4.5625 -0.125 4.5625 -2 6 C-5.1875 5.6875 -5.1875 5.6875 -8 5 C-7.38125 4.71125 -6.7625 4.4225 -6.125 4.125 C-3.86674235 3.06279958 -3.86674235 3.06279958 -2 1 C-1.67 1.33 -1.34 1.66 -1 2 C-0.67 1.34 -0.34 0.68 0 0 Z " fill="#8D44F7" transform="translate(99,82)" data-index="161"></path>
<path d="M0 0 C0.66 0.66 1.32 1.32 2 2 C2.66 1.34 3.32 0.68 4 0 C5.125 3.75 5.125 3.75 4 6 C2.0625 5.6875 2.0625 5.6875 0 5 C-0.33 4.01 -0.66 3.02 -1 2 C-0.67 1.34 -0.34 0.68 0 0 Z " fill="#6677F4" transform="translate(178,81)" data-index="162"></path>
<path d="M0 0 C0.66 0 1.32 0 2 0 C0.8141763 3.37503669 -0.27573689 5.64722731 -3 8 C-3.33 6.02 -3.66 4.04 -4 2 C-3.01 2 -2.02 2 -1 2 C-0.67 1.34 -0.34 0.68 0 0 Z " fill="#F0F4F4" transform="translate(174,78)" data-index="163"></path>
<path d="M0 0 C-0.57344937 2.86724686 -0.8614515 3.8614515 -3 6 C-3.99 5.67 -4.98 5.34 -6 5 C-3.74193548 0 -3.74193548 0 0 0 Z " fill="#43BBF5" transform="translate(103,16)" data-index="164"></path>
<path d="M0 0 C1.65 0.99 3.3 1.98 5 3 C4.67 3.99 4.34 4.98 4 6 C2.68 5.67 1.36 5.34 0 5 C0 3.35 0 1.7 0 0 Z " fill="#6E2CF2" transform="translate(59,166)" data-index="165"></path>
<path d="M0 0 C1.32 0 2.64 0 4 0 C4.33 0.99 4.66 1.98 5 3 C3.02 3.99 1.04 4.98 -1 6 C-0.67 4.02 -0.34 2.04 0 0 Z " fill="#6C32F6" transform="translate(82,74)" data-index="166"></path>
<path d="M0 0 C2.97 0.495 2.97 0.495 6 1 C3.37801226 3.15377564 1.35595828 4.40072174 -2 5 C-2 4.34 -2 3.68 -2 3 C-1.34 3 -0.68 3 0 3 C0 2.01 0 1.02 0 0 Z " fill="#E7F6FD" transform="translate(120,34)" data-index="167"></path>
<path d="M0 0 C1.32 0.66 2.64 1.32 4 2 C3.01 2.495 3.01 2.495 2 3 C2 3.99 2 4.98 2 6 C1.01 6 0.02 6 -1 6 C-0.67 4.02 -0.34 2.04 0 0 Z " fill="#6C26F8" transform="translate(225,168)" data-index="168"></path>
<path d="M0 0 C1.76462683 3.08809695 2 4.23312136 2 8 C1.01 8 0.02 8 -1 8 C-0.67 5.36 -0.34 2.72 0 0 Z " fill="#EAF4FD" transform="translate(187,72)" data-index="169"></path>
<path d="M0 0 C0.99 0.33 1.98 0.66 3 1 C2.34 3.31 1.68 5.62 1 8 C-1 5 -1 5 -0.625 2.3125 C-0.41875 1.549375 -0.2125 0.78625 0 0 Z " fill="#51D2F7" transform="translate(181,39)" data-index="170"></path>
<path d="M0 0 C0.66 0.33 1.32 0.66 2 1 C0.35 2.65 -1.3 4.3 -3 6 C-3.66 5.67 -4.32 5.34 -5 5 C-4 2 -4 2 -2.0625 0.75 C-1.381875 0.5025 -0.70125 0.255 0 0 Z " fill="#3CD2FA" transform="translate(110,10)" data-index="171"></path>
</svg>