<?xml version="1.0" encoding="UTF-8"?>
<svg id="Layer_1" data-name="Layer 1" xmlns="http://www.w3.org/2000/svg" xmlns:xlink="http://www.w3.org/1999/xlink" viewBox="0 0 429.58 293.22">
  <defs>
    <style>
      .cls-1 {
        fill: url(#GradientFill_2);
      }

      .cls-1, .cls-2 {
        fill-rule: evenodd;
      }

      .cls-2 {
        fill: #1a428a;
      }
    </style>
    <linearGradient id="GradientFill_2" data-name="GradientFill 2" x1="124.71" y1="158.97" x2="283.21" y2="44" gradientUnits="userSpaceOnUse">
      <stop offset="0" stop-color="#00bbb4"/>
      <stop offset=".28" stop-color="#6cca98"/>
      <stop offset=".72" stop-color="#715091"/>
      <stop offset="1" stop-color="#7564a0"/>
    </linearGradient>
  </defs>
  <path class="cls-1" d="M287.8,62.64c3,7.07,5.01,14.67,5.84,22.61h14.4c-.96-10.86-3.78-21.19-8.13-30.67-3.28,3.6-7.43,6.39-12.11,8.06h0ZM308.05,85.26c.24,2.76.37,5.55.37,8.37h-14.33c0-2.83-.15-5.62-.44-8.37h14.4ZM164.02,154.58c.01-.09.03-.17.04-.26v-.05c.02-.09.03-.18.04-.27v-.04c.01-.09.02-.19.03-.29v-.02c0-.1.02-.2.02-.3h0c0-.12,0-.22.01-.32h0c0-.11,0-.22,0-.33,0-6.9-5.59-12.5-12.5-12.5s-12.5,5.59-12.5,12.5,5.59,12.5,12.5,12.5c.11,0,.21,0,.32,0h0c.11,0,.21,0,.32-.01h0c.11,0,.21-.01.32-.02h0c.1,0,.21-.02.31-.03h0c.1-.01.21-.02.31-.04h0c.1-.01.2-.03.3-.04h0s0,0,0,0h0c.1-.02.2-.03.3-.05h0s0,0,0,0c.1-.02.2-.04.3-.06,5.1-1.04,9.06-5.18,9.84-10.37h0ZM151.67,131.1c-11.94,0-21.61,9.68-21.61,21.61s9.68,21.61,21.61,21.61c4,0,7.74-1.09,10.95-2.98,4.7,3.17,9.71,5.92,14.97,8.2,11.45,4.96,24.03,7.72,37.2,7.72,25.85,0,49.26-10.48,66.2-27.42,16.94-16.94,27.42-40.35,27.42-66.2h-14.33c0,21.9-8.88,41.72-23.22,56.07-14.35,14.35-34.17,23.22-56.07,23.22-11.26,0-21.92-2.31-31.54-6.48-3.97-1.72-7.76-3.76-11.36-6.07.9-2.38,1.39-4.96,1.39-7.65,0-11.94-9.68-21.61-21.61-21.61h0ZM265.4,32.56c0,.05-.02.11-.02.16,0,.05-.01.09-.02.14,0,.06-.01.12-.02.19,0,.04,0,.07-.01.11,0,.08-.01.15-.02.23v.07c-.01.09-.02.18-.02.27v.03c0,.1-.01.2-.01.3h0c0,.12,0,.22,0,.33,0,6.9,5.59,12.5,12.5,12.5s12.5-5.59,12.5-12.5-5.59-12.5-12.5-12.5c-.11,0-.21,0-.32,0h0c-.1,0-.21,0-.32.01h0s0,0,0,0c-.1,0-.21.01-.31.02h0c-.1,0-.2.02-.3.03h-.02c-.1.01-.19.02-.29.03h-.02c-.09.02-.19.03-.28.04h-.03c-.09.02-.19.03-.28.05h-.03c-.09.02-.18.04-.27.06-5.12,1.04-9.1,5.21-9.86,10.42h0ZM277.76,12.77c11.94,0,21.61,9.68,21.61,21.61s-9.68,21.61-21.61,21.61-21.61-9.68-21.61-21.61c0-2.67.49-5.23,1.37-7.59-3.58-2.3-7.35-4.31-11.29-6.01-9.59-4.14-20.22-6.44-31.44-6.44-21.9,0-41.72,8.87-56.07,23.22-14.35,14.35-23.22,34.17-23.22,56.07,0,2.83.15,5.62.44,8.37.83,7.88,2.81,15.41,5.77,22.43-4.69,1.65-8.84,4.44-12.13,8.03-4.3-9.42-7.08-19.67-8.03-30.45-.24-2.76-.37-5.55-.37-8.37,0-25.85,10.48-49.26,27.42-66.2C165.53,10.48,188.94,0,214.79,0c13.13,0,25.67,2.74,37.1,7.67,5.23,2.26,10.2,4.98,14.88,8.1,3.22-1.91,6.98-3,10.99-3h0ZM206.4,57.46c9.97-2.29,19.93-.33,27.97,4.71,8.04,5.03,14.16,13.13,16.45,23.1,2.29,9.97.33,19.93-4.71,27.97-5.03,8.04-13.13,14.16-23.1,16.45-9.97,2.29-19.93.33-27.97-4.71-8.04-5.03-14.16-13.13-16.45-23.1-2.29-9.97-.33-19.93,4.71-27.97,5.03-8.04,13.13-14.16,23.1-16.45Z"/>
  <path class="cls-2" d="M34.83,261.92h-18.32c-.93,0-1.82.16-2.66.47-.8.35-1.53.86-2.19,1.53-.67.66-1.18,1.4-1.53,2.19-.35.84-.53,1.74-.53,2.67v7.99c0,.89.18,1.75.53,2.59.35.84.86,1.6,1.53,2.26.61.62,1.35,1.11,2.19,1.47.84.36,1.73.53,2.66.53h18.32c.93,0,1.82-.17,2.66-.53.8-.35,1.53-.84,2.19-1.47.67-.66,1.18-1.42,1.53-2.26.32-.84.47-1.7.47-2.59v-7.99c0-.93-.15-1.81-.47-2.6-.35-.84-.86-1.6-1.53-2.26-.66-.67-1.4-1.18-2.19-1.53-.84-.31-1.73-.47-2.66-.47h0ZM34.83,252.33c2.97,0,5.68.72,8.12,2.14,2.48,1.42,4.43,3.31,5.85,5.66.8,1.24,1.42,2.59,1.86,4.06.4,1.47.6,3,.6,4.6v7.99c0,1.55-.2,3.06-.6,4.52-.44,1.47-1.07,2.84-1.86,4.12-1.42,2.35-3.38,4.24-5.85,5.66-2.44,1.42-5.16,2.14-8.12,2.14h-18.32c-1.59,0-3.13-.23-4.59-.67-1.47-.4-2.82-1-4.06-1.8-2.35-1.47-4.24-3.42-5.66-5.85-1.47-2.49-2.2-5.2-2.2-8.12v-7.99c0-1.6.23-3.14.67-4.6.44-1.47,1.07-2.82,1.86-4.06,1.42-2.35,3.37-4.24,5.85-5.66,2.44-1.42,5.16-2.14,8.12-2.14h18.32ZM105.27,280.69c0,3.47-1.24,6.42-3.73,8.86-2.49,2.44-5.49,3.66-8.99,3.66h-25.91c-.4,0-1.52-.16-3.39-.47-1.86-.35-3.7-1.42-5.53-3.19-1.5-1.56-2.48-3.14-2.92-4.73-.45-1.6-.69-2.8-.74-3.6,0-.17.05-.33.14-.47.14-.12.28-.19.47-.19h8.39c.14,0,.27.05.4.13.14.14.2.27.2.41,0,.03.02.1.07.19v.14c.13.35.26.62.4.8.17.23.31.4.4.53.18.14.44.31.8.53.36.22.81.33,1.33.33h26.04c.52,0,.97-.11,1.33-.33.35-.23.61-.4.8-.53.18-.18.37-.44.6-.8.17-.36.26-.83.26-1.4,0-.53-.09-.98-.26-1.33-.23-.36-.42-.62-.6-.81-.18-.17-.44-.35-.8-.53-.36-.22-.81-.33-1.33-.33h-26.04c-1.99,0-3.85-.44-5.59-1.33-1.68-.89-3.12-2.05-4.33-3.47-.84-1.11-1.5-2.33-1.99-3.66-.49-1.37-.74-2.8-.74-4.26.05-3.51,1.31-6.48,3.79-8.92,2.49-2.4,5.49-3.6,8.99-3.6h25.91c3.36,0,6.25,1.16,8.65,3.47,2.44,2.31,3.75,5.12,3.93,8.45,0,.18-.05.33-.14.47-.12.14-.28.2-.47.2h-8.39c-.14,0-.27-.07-.4-.2-.14-.09-.2-.19-.2-.33-.09-.4-.22-.74-.4-1-.18-.26-.33-.47-.47-.6-.18-.17-.44-.37-.8-.59-.36-.18-.81-.27-1.33-.27h-26.04c-.52,0-.97.09-1.33.27-.4.22-.66.42-.8.59-.18.18-.37.44-.6.81-.22.35-.33.8-.33,1.33,0,.58.11,1.05.33,1.4.23.35.42.6.6.73.14.18.4.38.8.6.36.22.81.33,1.33.33h26.04c1.99,0,3.85.42,5.59,1.27,1.68.89,3.12,2.06,4.33,3.52.84,1.07,1.5,2.28,1.99,3.66.49,1.34.72,2.76.67,4.26h0ZM108.66,293.22c-.18,0-.33-.07-.47-.2-.14-.12-.2-.28-.2-.47v-39.61c0-.18.07-.33.2-.47.14-.09.28-.14.47-.14h8.32c.18,0,.34.05.47.14.14.14.2.28.2.47v39.61c0,.18-.07.34-.2.47-.12.14-.28.2-.47.2h-8.32ZM169.79,253.4c-4.05,4.31-10.08,10.76-18.11,19.37-.35.35-.89.91-1.6,1.67-.05.08-.07.15-.07.19-.03.09-.06.18-.06.27v17.64c0,.18-.07.34-.2.47-.14.14-.28.2-.47.2h-8.32c-.14,0-.27-.07-.41-.2-.12-.12-.19-.28-.19-.47v-17.64c0-.09-.02-.18-.07-.27,0-.05-.05-.11-.14-.19-.35-.36-.89-.91-1.59-1.67-4-4.31-10.01-10.76-18.04-19.37-.14-.14-.2-.28-.2-.47,0-.09.02-.18.07-.26.14-.23.33-.34.6-.34h11.65s.11.11.2.2c2.61,2.8,6.57,7.03,11.85,12.72.12.14.28.2.47.2.17,0,.33-.07.47-.2,2.61-2.84,6.57-7.08,11.85-12.72.05-.09.11-.16.19-.2h11.66c.26,0,.44.11.53.34.05.08.06.17.06.26,0,.18-.03.33-.12.47h0ZM200.61,261.92h-18.32c-.93,0-1.82.16-2.66.47-.8.35-1.53.86-2.19,1.53-.67.66-1.18,1.4-1.53,2.19-.35.84-.53,1.74-.53,2.67v7.99c0,.89.18,1.75.53,2.59.35.84.86,1.6,1.53,2.26.61.62,1.35,1.11,2.19,1.47.84.36,1.73.53,2.66.53h18.32c.93,0,1.82-.17,2.66-.53.8-.35,1.53-.84,2.19-1.47.67-.66,1.18-1.42,1.53-2.26.32-.84.47-1.7.47-2.59v-7.99c0-.93-.15-1.81-.47-2.6-.35-.84-.86-1.6-1.53-2.26-.66-.67-1.4-1.18-2.19-1.53-.84-.31-1.73-.47-2.66-.47h0ZM200.61,252.33h-18.32c-2.97,0-5.68.72-8.12,2.14-2.48,1.42-4.43,3.31-5.85,5.66-.8,1.24-1.42,2.59-1.86,4.06-.44,1.47-.67,3-.67,4.6v7.99c0,2.92.74,5.64,2.2,8.12,1.42,2.43,3.31,4.39,5.66,5.85,1.24.8,2.59,1.4,4.06,1.8,1.47.44,3,.67,4.59.67h18.32c2.97,0,5.68-.72,8.12-2.14,2.48-1.42,4.43-3.31,5.85-5.66.8-1.28,1.42-2.66,1.86-4.12.4-1.47.6-2.98.6-4.52v-7.99c0-1.6-.2-3.14-.6-4.6-.44-1.47-1.07-2.82-1.86-4.06-1.42-2.35-3.38-4.24-5.85-5.66-2.44-1.42-5.16-2.14-8.12-2.14h0ZM271.05,261.25c0,.18-.05.34-.14.47-.12.14-.28.2-.47.2h-19.57c-.18,0-.34.05-.47.14-.14.12-.2.28-.2.47v30.02c0,.18-.05.34-.14.47-.12.14-.28.2-.47.2h-8.32c-.18,0-.33-.07-.47-.2-.14-.12-.2-.28-.2-.47v-30.02c0-.18-.05-.34-.12-.47-.14-.09-.3-.14-.48-.14h-19.57c-.18,0-.33-.07-.47-.2-.14-.12-.2-.28-.2-.47v-8.32c0-.18.07-.33.2-.47.14-.09.28-.14.47-.14h50c.18,0,.34.05.47.14.09.14.14.28.14.47v8.32h0ZM283.37,267.32c0,.17.07.33.2.47.12.13.28.19.47.19h37.15c.18,0,.33.07.47.2.14.09.2.22.2.4v8.32c0,.18-.07.34-.2.47-.14.14-.28.2-.47.2h-37.15c-.18,0-.34.07-.47.2-.14.08-.2.22-.2.4v4.8c0,.17.07.33.2.47.12.13.28.19.47.19h37.15c.18,0,.33.07.47.2.14.14.2.28.2.47v8.25c0,.18-.07.34-.2.47-.14.14-.28.2-.47.2h-46.74c-.18,0-.33-.07-.47-.2-.14-.12-.2-.28-.2-.47v-39.61c0-.18.07-.33.2-.47.14-.09.28-.14.47-.14h46.74c.18,0,.33.05.47.14.14.14.2.28.2.47v8.32c0,.18-.07.34-.2.47-.14.14-.28.2-.47.2h-37.15c-.18,0-.34.05-.47.14-.14.12-.2.28-.2.47v4.8h0ZM364.2,281.63c.49-.49.9-1.03,1.2-1.66.35-.58.58-1.2.66-1.86.05-.18.14-.31.27-.4.09-.09.22-.14.4-.14h8.39c.18,0,.34.07.47.2.14.12.18.28.14.47-.35,4.22-2.1,7.76-5.26,10.65-3.1,2.89-6.81,4.33-11.11,4.33h-18.32c-1.59,0-3.12-.23-4.59-.67-1.47-.4-2.82-1-4.06-1.8-2.35-1.47-4.24-3.42-5.66-5.85-1.47-2.49-2.2-5.2-2.2-8.12v-7.99c0-2.98.74-5.68,2.2-8.12,1.42-2.49,3.31-4.44,5.66-5.86,1.24-.8,2.59-1.42,4.06-1.86,1.47-.4,3-.6,4.59-.6h18.32c4.31,0,8.03,1.44,11.18,4.33,3.11,2.89,4.84,6.42,5.19,10.59v.14c0,.12-.05.26-.14.4-.12.13-.28.19-.47.19h-8.39c-.18,0-.31-.05-.4-.12-.14-.14-.23-.27-.27-.41-.08-.66-.31-1.28-.66-1.86-.31-.61-.72-1.17-1.2-1.66-.66-.67-1.42-1.18-2.26-1.53-.84-.31-1.73-.47-2.66-.47h-18.25c-.93,0-1.82.18-2.66.53-.84.35-1.6.86-2.26,1.53-.62.61-1.11,1.35-1.47,2.19-.35.89-.53,1.77-.53,2.66v7.93c0,.89.2,1.77.6,2.66.35.84.84,1.58,1.47,2.19.66.67,1.42,1.16,2.26,1.47.89.36,1.77.53,2.66.53h18.18c.93,0,1.82-.17,2.66-.53.84-.35,1.6-.84,2.26-1.47h0ZM429.58,292.55c0,.18-.05.34-.14.47-.12.14-.28.2-.45.2h-8.33c-.18,0-.33-.07-.47-.2-.14-.12-.2-.28-.2-.47v-14.37c0-.18-.03-.32-.13-.4-.14-.14-.3-.2-.47-.2h-30.69c-.18,0-.34.07-.47.2-.14.08-.2.22-.2.4v14.37c0,.18-.05.34-.14.47-.12.14-.28.2-.47.2h-8.32c-.18,0-.33-.07-.47-.2-.14-.12-.2-.28-.2-.47v-39.61c0-.18.07-.33.2-.47.14-.09.28-.14.47-.14h8.32c.18,0,.34.05.47.14.09.14.14.28.14.47v14.39c0,.17.07.33.2.47.12.13.28.19.47.19h30.69c.17,0,.33-.07.47-.19.09-.14.13-.3.13-.47v-14.39c0-.18.07-.33.2-.47.14-.09.28-.14.47-.14h8.33c.17,0,.33.05.45.14.09.14.14.28.14.47v39.61Z"/>
</svg>