<svg xmlns="http://www.w3.org/2000/svg" xmlns:v="https://svgstorm.com"
viewBox = "0 0 264 191"
width="264"
height="191">
<g fill="None" fill-opacity="0.0" stroke="#FEFDFE" stroke-opacity="1.00" stroke-width="0.3"><path d="
M 0.00 174.00 
C 3.68 162.26 27.19 161.94 31.00 174.00
C 32.02 177.23 32.00 179.83 31.00 183.00
C 29.77 186.90 27.55 189.21 24.00 191.00
L 38.00 191.00
C 35.37 189.32 33.54 186.19 33.00 183.00
C 42.42 182.97 41.99 186.84 53.00 185.00 C 64.01 183.16 52.65 180.82 47.00 181.00 C 41.35 181.18 30.73 182.95 33.02 172.98 C 35.32 163.01 63.04 161.32 64.00 173.00
C 55.91 171.78 47.43 171.92 39.00 172.00
C 42.59 178.73 53.52 172.58 60.02 175.98 C 66.53 179.37 65.46 188.59 59.00 191.00
L 66.00 191.00
C 66.57 187.38 65.25 181.39 66.00 178.00 C 66.75 174.61 64.09 167.84 67.00 166.00
C 68.19 165.25 70.69 166.57 72.00 166.00
C 72.00 174.33 72.00 182.67 72.00 191.00
L 86.00 191.00
C 89.02 179.93 80.61 173.16 74.00 166.00
C 81.38 163.66 85.11 170.21 90.00 174.00
C 93.05 168.80 97.16 164.09 104.00 166.00
C 98.59 174.01 88.47 179.57 92.00 191.00
L 109.00 191.00
C 101.81 188.05 98.91 174.70 104.26 169.26 C 109.61 163.81 124.51 163.96 130.25 168.75 C 135.98 173.54 134.13 189.38 126.00 191.00
L 148.00 191.00
C 148.00 184.67 148.00 178.33 148.00 172.00
C 143.67 172.00 139.33 172.00 135.00 172.00
C 132.94 163.72 141.24 166.18 147.00 166.00 C 152.76 165.82 160.10 166.14 166.00 166.00
C 167.80 167.24 166.67 170.04 167.00 172.00
C 162.67 172.00 158.33 172.00 154.00 172.00
C 151.02 176.25 156.23 186.23 154.00 191.00
L 168.00 191.00
C 168.00 182.67 168.00 174.33 168.00 166.00
C 178.00 166.00 188.00 166.00 198.00 166.00
C 198.43 177.47 181.37 169.76 174.00 172.00
C 177.24 178.61 190.71 173.28 198.00 175.00
C 199.11 186.59 181.45 178.68 174.00 181.00
C 175.59 189.47 190.79 182.95 198.00 185.00
C 198.00 187.00 198.00 189.00 198.00 191.00
L 206.00 191.00
C 197.91 187.83 195.89 171.07 204.25 167.25 C 212.61 163.43 229.56 164.01 231.00 175.00
C 224.51 173.93 203.86 165.98 205.00 179.00 C 206.14 192.03 224.98 181.86 231.00 181.00
C 230.87 185.41 227.15 188.63 224.00 191.00
L 232.00 191.00
C 232.57 187.38 231.25 181.39 232.00 178.00 C 232.75 174.61 230.09 167.84 233.00 166.00
C 234.19 165.25 236.69 166.57 238.00 166.00
C 238.00 169.00 238.00 172.00 238.00 175.00
C 244.67 175.00 251.33 175.00 258.00 175.00
C 259.41 172.99 256.94 168.26 258.00 166.00
C 260.00 166.00 262.00 166.00 264.00 166.00
L 264.00 0.00
L 141.00 0.00
C 152.15 7.31 165.74 5.86 177.68 9.32 C 189.62 12.79 184.49 37.87 170.00 35.00 C 155.51 32.12 160.15 14.27 145.93 11.07 C 131.71 7.88 119.86 9.41 107.00 16.00
C 105.62 17.05 103.83 18.76 102.00 20.00
C 100.43 21.68 97.28 22.72 96.00 24.00
C 94.68 25.32 92.12 29.34 91.00 31.00
C 89.39 33.39 86.91 37.57 86.00 40.00
C 84.53 43.93 84.16 48.68 84.00 53.00
C 83.86 56.60 83.76 60.41 84.00 64.00
C 84.31 68.59 85.77 72.65 87.00 77.00
C 83.88 77.17 82.14 80.84 79.00 81.00
C 77.29 74.46 74.16 68.24 75.00 61.00
C 74.72 58.13 73.71 56.04 75.00 53.00
C 75.00 52.50 75.02 51.50 75.00 51.00
C 74.76 44.67 77.62 39.20 80.00 34.00
C 81.33 31.10 82.49 27.79 84.00 25.00
C 86.66 20.07 91.22 14.64 96.00 12.00
C 97.98 10.91 100.09 10.18 102.00 9.00
C 108.43 5.02 115.72 1.56 123.00 0.00
L 0.00 0.00
L 0.00 174.00
M 188.00 70.00 
C 187.18 73.54 186.75 79.57 184.00 82.00
C 183.74 82.23 183.33 82.82 183.00 83.00
C 181.72 85.60 180.58 87.70 179.00 90.00
C 174.56 96.47 170.13 102.94 162.75 106.75 C 155.38 110.56 146.83 115.19 138.00 115.00 C 129.16 114.80 116.84 116.43 109.31 110.69 C 101.77 104.96 91.49 109.48 84.25 103.75 C 77.00 98.02 79.05 86.03 87.23 82.23 C 95.41 78.43 106.80 84.02 106.00 94.00 C 105.20 103.98 120.58 105.72 128.00 106.00
C 130.64 106.10 133.36 106.10 136.00 106.00
C 148.65 105.52 162.98 98.47 171.00 88.00
C 172.31 86.29 175.12 81.85 176.00 80.00
C 176.50 78.94 177.67 75.95 178.00 75.00
C 179.10 71.79 179.73 67.43 180.00 64.00
C 180.39 59.04 180.66 52.92 180.00 48.00
C 179.21 44.81 174.92 41.40 177.00 37.00
C 178.00 37.00 179.00 37.00 180.00 37.00
C 181.46 35.78 183.04 34.05 185.00 34.00
C 190.03 44.70 190.03 58.70 188.00 70.00
M 151.00 45.00 
C 152.29 47.11 153.35 49.65 154.00 52.00
C 154.13 52.46 154.00 53.50 154.00 54.00
C 155.28 57.02 154.63 59.14 154.00 62.00
C 153.84 65.90 152.25 68.26 150.00 71.00
C 136.90 86.94 113.30 81.34 110.00 61.00
C 109.14 55.72 109.84 52.89 112.00 48.00
C 113.54 44.52 114.50 42.41 118.00 40.00
C 118.88 39.39 118.75 39.32 120.00 39.00
C 129.73 32.33 144.20 33.89 151.00 45.00 Z"/>
</g>
<g fill="None" fill-opacity="0.0" stroke="#54DBF3" stroke-opacity="1.00" stroke-width="0.3"><path d="
M 102.00 9.00 
C 103.46 8.93 106.22 13.16 109.00 12.00
C 107.87 15.42 103.54 14.31 103.00 18.00
C 103.92 17.05 105.83 16.60 107.00 16.00
C 119.86 9.41 131.71 7.88 145.93 11.07 C 160.15 14.27 155.51 32.12 170.00 35.00 C 184.49 37.87 189.62 12.79 177.68 9.32 C 165.74 5.86 152.15 7.31 141.00 0.00
L 123.00 0.00
C 115.72 1.56 108.43 5.02 102.00 9.00
M 174.00 14.00 
C 182.21 16.76 176.68 32.38 167.78 28.22 C 158.87 24.06 164.79 10.91 174.00 14.00 Z"/>
</g>
<g fill="None" fill-opacity="0.0" stroke="#43BCF6" stroke-opacity="1.00" stroke-width="0.3"><path d="
M 96.00 12.00 
C 94.84 12.95 94.00 14.96 93.00 16.00
C 92.82 16.09 95.56 16.26 96.00 15.00
C 93.55 18.20 95.22 21.37 96.00 24.00
C 97.28 22.72 100.43 21.68 102.00 20.00
C 102.50 19.46 102.69 18.62 103.00 18.00
C 103.54 14.31 107.87 15.42 109.00 12.00
C 106.22 13.16 103.46 8.93 102.00 9.00
C 100.09 10.18 97.98 10.91 96.00 12.00 Z"/>
</g>
<g fill="None" fill-opacity="0.0" stroke="#D8F5FE" stroke-opacity="1.00" stroke-width="0.3"><path d="
M 84.00 25.00 
C 84.52 24.33 85.45 23.72 86.00 23.00
C 88.05 20.32 90.76 18.33 93.00 16.00
C 94.00 14.96 94.84 12.95 96.00 12.00
C 91.22 14.64 86.66 20.07 84.00 25.00 Z"/>
</g>
<g fill="None" fill-opacity="0.0" stroke="#F8FBFC" stroke-opacity="1.00" stroke-width="0.3"><path d="
M 174.00 14.00 
C 164.79 10.91 158.87 24.06 167.78 28.22 C 176.68 32.38 182.21 16.76 174.00 14.00 Z"/>
</g>
<g fill="None" fill-opacity="0.0" stroke="#4B9AF7" stroke-opacity="1.00" stroke-width="0.3"><path d="
M 93.00 16.00 
C 90.76 18.33 88.05 20.32 86.00 23.00
C 86.70 20.65 87.78 30.60 91.00 31.00
C 92.12 29.34 94.68 25.32 96.00 24.00
C 95.22 21.37 93.55 18.20 96.00 15.00
C 95.56 16.26 92.82 16.09 93.00 16.00 Z"/>
</g>
<g fill="None" fill-opacity="0.0" stroke="#CEF9FD" stroke-opacity="1.00" stroke-width="0.3"><path d="
M 103.00 18.00 
C 102.69 18.62 102.50 19.46 102.00 20.00
C 103.83 18.76 105.62 17.05 107.00 16.00
C 105.83 16.60 103.92 17.05 103.00 18.00 Z"/>
</g>
<g fill="None" fill-opacity="0.0" stroke="#5780F6" stroke-opacity="1.00" stroke-width="0.3"><path d="
M 86.00 23.00 
C 85.45 23.72 84.52 24.33 84.00 25.00
C 82.49 27.79 81.33 31.10 80.00 34.00
C 82.53 33.37 81.90 36.53 82.00 38.00
C 84.10 37.26 86.74 36.42 86.00 40.00
C 86.91 37.57 89.39 33.39 91.00 31.00
C 87.78 30.60 86.70 20.65 86.00 23.00 Z"/>
</g>
<g fill="None" fill-opacity="0.0" stroke="#6365F8" stroke-opacity="1.00" stroke-width="0.3"><path d="
M 75.00 51.00 
C 77.13 54.12 78.00 56.17 80.00 59.00
C 81.53 58.26 80.67 55.23 83.00 55.00
C 83.12 53.99 83.89 53.52 84.00 53.00
C 84.16 48.68 84.53 43.93 86.00 40.00
C 86.74 36.42 84.10 37.26 82.00 38.00
C 81.90 36.53 82.53 33.37 80.00 34.00
C 77.62 39.20 74.76 44.67 75.00 51.00 Z"/>
</g>
<g fill="None" fill-opacity="0.0" stroke="#6ACDF9" stroke-opacity="1.00" stroke-width="0.3"><path d="
M 180.00 37.00 
C 176.64 41.13 179.41 43.54 180.00 48.00
C 180.66 52.92 180.39 59.04 180.00 64.00
C 180.69 66.44 183.71 68.89 184.00 64.00
C 184.04 70.28 184.46 67.90 186.00 64.00
C 185.00 66.62 188.33 67.59 188.00 70.00
C 190.03 58.70 190.03 44.70 185.00 34.00
C 183.04 34.05 181.46 35.78 180.00 37.00 Z"/>
</g>
<g fill="None" fill-opacity="0.0" stroke="#59C4F3" stroke-opacity="1.00" stroke-width="0.3"><path d="
M 120.00 39.00 
C 122.24 38.43 128.80 35.26 126.00 40.00
C 135.21 38.85 144.35 36.46 151.00 45.00
C 144.20 33.89 129.73 32.33 120.00 39.00 Z"/>
</g>
<g fill="None" fill-opacity="0.0" stroke="#4FB0F9" stroke-opacity="1.00" stroke-width="0.3"><path d="
M 120.00 39.00 
C 118.75 39.32 118.88 39.39 118.00 40.00
C 117.18 43.12 126.51 44.00 128.30 46.70 C 130.09 49.39 137.77 47.00 140.25 49.76 C 142.73 52.51 150.90 52.15 154.00 52.00
C 153.35 49.65 152.29 47.11 151.00 45.00
C 144.35 36.46 135.21 38.85 126.00 40.00
C 128.80 35.26 122.24 38.43 120.00 39.00 Z"/>
</g>
<g fill="None" fill-opacity="0.0" stroke="#B6F1F6" stroke-opacity="1.00" stroke-width="0.3"><path d="
M 180.00 48.00 
C 179.41 43.54 176.64 41.13 180.00 37.00
C 179.00 37.00 178.00 37.00 177.00 37.00
C 174.92 41.40 179.21 44.81 180.00 48.00 Z"/>
</g>
<g fill="None" fill-opacity="0.0" stroke="#599BF9" stroke-opacity="1.00" stroke-width="0.3"><path d="
M 112.00 48.00 
C 112.80 46.77 114.38 45.52 115.00 44.00
C 118.46 49.54 126.35 52.49 132.75 55.25 C 139.14 58.02 148.48 62.90 154.00 60.00
C 154.00 58.00 154.00 56.00 154.00 54.00
C 154.00 53.50 154.13 52.46 154.00 52.00
C 150.90 52.15 142.73 52.51 140.25 49.76 C 137.77 47.00 130.09 49.39 128.30 46.70 C 126.51 44.00 117.18 43.12 118.00 40.00
C 114.50 42.41 113.54 44.52 112.00 48.00 Z"/>
</g>
<g fill="None" fill-opacity="0.0" stroke="#627FFB" stroke-opacity="1.00" stroke-width="0.3"><path d="
M 112.00 48.00 
C 109.84 52.89 109.14 55.72 110.00 61.00
C 110.84 50.90 119.65 60.58 126.02 60.98 C 132.40 61.37 138.39 69.40 146.00 68.00
C 145.02 71.97 148.11 69.30 150.00 71.00
C 152.25 68.26 153.84 65.90 154.00 62.00
C 154.02 61.50 154.00 60.50 154.00 60.00
C 148.48 62.90 139.14 58.02 132.75 55.25 C 126.35 52.49 118.46 49.54 115.00 44.00
C 114.38 45.52 112.80 46.77 112.00 48.00 Z"/>
</g>
<g fill="None" fill-opacity="0.0" stroke="#7047F8" stroke-opacity="1.00" stroke-width="0.3"><path d="
M 75.00 53.00 
C 75.00 55.67 75.00 58.33 75.00 61.00
C 74.16 68.24 77.29 74.46 79.00 81.00
C 82.14 80.84 83.88 77.17 87.00 77.00
C 85.77 72.65 84.31 68.59 84.00 64.00
C 83.54 61.45 82.60 58.24 83.00 55.00
C 80.67 55.23 81.53 58.26 80.00 59.00
C 78.00 56.17 77.13 54.12 75.00 51.00
C 75.02 51.50 75.00 52.50 75.00 53.00 Z"/>
</g>
<g fill="None" fill-opacity="0.0" stroke="#B6ACF7" stroke-opacity="1.00" stroke-width="0.3"><path d="
M 75.00 61.00 
C 75.00 58.33 75.00 55.67 75.00 53.00
C 73.71 56.04 74.72 58.13 75.00 61.00 Z"/>
</g>
<g fill="None" fill-opacity="0.0" stroke="#C9C5F8" stroke-opacity="1.00" stroke-width="0.3"><path d="
M 83.00 55.00 
C 82.60 58.24 83.54 61.45 84.00 64.00
C 83.76 60.41 83.86 56.60 84.00 53.00
C 83.89 53.52 83.12 53.99 83.00 55.00 Z"/>
</g>
<g fill="None" fill-opacity="0.0" stroke="#A7C9FC" stroke-opacity="1.00" stroke-width="0.3"><path d="
M 154.00 60.00 
C 154.00 60.50 154.02 61.50 154.00 62.00
C 154.63 59.14 155.28 57.02 154.00 54.00
C 154.00 56.00 154.00 58.00 154.00 60.00 Z"/>
</g>
<g fill="None" fill-opacity="0.0" stroke="#6A5AFB" stroke-opacity="1.00" stroke-width="0.3"><path d="
M 110.00 61.00 
C 113.30 81.34 136.90 86.94 150.00 71.00
C 148.11 69.30 145.02 71.97 146.00 68.00
C 138.39 69.40 132.40 61.37 126.02 60.98 C 119.65 60.58 110.84 50.90 110.00 61.00 Z"/>
</g>
<g fill="None" fill-opacity="0.0" stroke="#6CAAF8" stroke-opacity="1.00" stroke-width="0.3"><path d="
M 178.00 75.00 
C 179.07 77.82 180.87 76.27 183.00 76.00
C 184.40 78.07 184.89 79.68 184.00 82.00
C 186.75 79.57 187.18 73.54 188.00 70.00
C 188.33 67.59 185.00 66.62 186.00 64.00
C 184.46 67.90 184.04 70.28 184.00 64.00
C 183.71 68.89 180.69 66.44 180.00 64.00
C 179.73 67.43 179.10 71.79 178.00 75.00 Z"/>
</g>
<g fill="None" fill-opacity="0.0" stroke="#678AF9" stroke-opacity="1.00" stroke-width="0.3"><path d="
M 176.00 80.00 
C 176.08 82.35 177.07 85.15 180.00 85.00
C 180.44 83.71 181.58 82.79 183.00 83.00
C 183.33 82.82 183.74 82.23 184.00 82.00
C 184.89 79.68 184.40 78.07 183.00 76.00
C 180.87 76.27 179.07 77.82 178.00 75.00
C 177.67 75.95 176.50 78.94 176.00 80.00 Z"/>
</g>
<g fill="None" fill-opacity="0.0" stroke="#6A6EF8" stroke-opacity="1.00" stroke-width="0.3"><path d="
M 171.00 88.00 
C 175.39 86.39 176.48 87.90 175.00 92.00
C 176.54 91.95 177.93 87.97 179.00 90.00
C 180.58 87.70 181.72 85.60 183.00 83.00
C 181.58 82.79 180.44 83.71 180.00 85.00
C 177.07 85.15 176.08 82.35 176.00 80.00
C 175.12 81.85 172.31 86.29 171.00 88.00 Z"/>
</g>
<g fill="None" fill-opacity="0.0" stroke="#7A2EF8" stroke-opacity="1.00" stroke-width="0.3"><path d="
M 179.00 90.00 
C 177.93 87.97 176.54 91.95 175.00 92.00
C 176.48 87.90 175.39 86.39 171.00 88.00
C 162.98 98.47 148.65 105.52 136.00 106.00
C 133.22 106.40 130.72 106.39 128.00 106.00
C 120.58 105.72 105.20 103.98 106.00 94.00 C 106.80 84.02 95.41 78.43 87.23 82.23 C 79.05 86.03 77.00 98.02 84.25 103.75 C 91.49 109.48 101.77 104.96 109.31 110.69 C 116.84 116.43 129.16 114.80 138.00 115.00 C 146.83 115.19 155.38 110.56 162.75 106.75 C 170.13 102.94 174.56 96.47 179.00 90.00
M 94.00 86.00 
C 102.96 86.74 102.91 102.47 92.99 101.99 C 83.07 101.51 84.27 85.19 94.00 86.00 Z"/>
</g>
<g fill="None" fill-opacity="0.0" stroke="#FAF6FA" stroke-opacity="1.00" stroke-width="0.3"><path d="
M 94.00 86.00 
C 84.27 85.19 83.07 101.51 92.99 101.99 C 102.91 102.47 102.96 86.74 94.00 86.00 Z"/>
</g>
<g fill="None" fill-opacity="0.0" stroke="#C79DFD" stroke-opacity="1.00" stroke-width="0.3"><path d="
M 136.00 106.00 
C 133.36 106.10 130.64 106.10 128.00 106.00
C 130.72 106.39 133.22 106.40 136.00 106.00 Z"/>
</g>
<g fill="None" fill-opacity="0.0" stroke="#682CF8" stroke-opacity="1.00" stroke-width="0.3"><path d="
M 0.00 174.00 
L 0.00 184.00
C 1.95 186.86 5.03 189.69 8.00 191.00
L 24.00 191.00
C 27.55 189.21 29.77 186.90 31.00 183.00
C 31.44 180.55 31.44 176.45 31.00 174.00
C 27.19 161.94 3.68 162.26 0.00 174.00
M 24.00 172.00 
C 26.75 173.42 27.50 182.53 24.23 184.23 C 20.96 185.93 11.97 185.15 8.33 184.67 C 4.69 184.19 4.69 173.45 7.75 172.75 C 10.82 172.06 20.79 170.34 24.00 172.00 Z"/>
</g>
<g fill="None" fill-opacity="0.0" stroke="#6B33F9" stroke-opacity="1.00" stroke-width="0.3"><path d="
M 38.00 191.00 
L 59.00 191.00
C 65.46 188.59 66.53 179.37 60.02 175.98 C 53.52 172.58 42.59 178.73 39.00 172.00
C 47.43 171.92 55.91 171.78 64.00 173.00
C 63.04 161.32 35.32 163.01 33.02 172.98 C 30.73 182.95 41.35 181.18 47.00 181.00 C 52.65 180.82 64.01 183.16 53.00 185.00 C 41.99 186.84 42.42 182.97 33.00 183.00
C 33.54 186.19 35.37 189.32 38.00 191.00 Z"/>
</g>
<g fill="None" fill-opacity="0.0" stroke="#A98DFA" stroke-opacity="1.00" stroke-width="0.3"><path d="
M 66.00 191.00 
L 67.00 191.00
C 67.00 182.67 67.00 174.33 67.00 166.00
C 64.09 167.84 66.75 174.61 66.00 178.00 C 65.25 181.39 66.57 187.38 66.00 191.00 Z"/>
</g>
<g fill="None" fill-opacity="0.0" stroke="#661DFA" stroke-opacity="1.00" stroke-width="0.3"><path d="
M 67.00 191.00 
L 72.00 191.00
C 72.00 182.67 72.00 174.33 72.00 166.00
C 70.69 166.57 68.19 165.25 67.00 166.00
C 67.00 174.33 67.00 182.67 67.00 191.00 Z"/>
</g>
<g fill="None" fill-opacity="0.0" stroke="#6A2FF7" stroke-opacity="1.00" stroke-width="0.3"><path d="
M 86.00 191.00 
L 92.00 191.00
C 88.47 179.57 98.59 174.01 104.00 166.00
C 97.16 164.09 93.05 168.80 90.00 174.00
C 85.11 170.21 81.38 163.66 74.00 166.00
C 80.61 173.16 89.02 179.93 86.00 191.00 Z"/>
</g>
<g fill="None" fill-opacity="0.0" stroke="#6A2EF9" stroke-opacity="1.00" stroke-width="0.3"><path d="
M 109.00 191.00 
L 126.00 191.00
C 134.13 189.38 135.98 173.54 130.25 168.75 C 124.51 163.96 109.61 163.81 104.26 169.26 C 98.91 174.70 101.81 188.05 109.00 191.00
M 127.00 175.00 
C 128.25 177.42 128.28 179.62 127.00 182.00
C 124.00 187.55 108.97 187.82 108.00 179.00 C 107.04 170.18 123.63 168.49 127.00 175.00 Z"/>
</g>
<g fill="None" fill-opacity="0.0" stroke="#692FFB" stroke-opacity="1.00" stroke-width="0.3"><path d="
M 148.00 191.00 
L 154.00 191.00
C 156.23 186.23 151.02 176.25 154.00 172.00
C 156.04 169.08 162.95 172.12 166.00 171.00
C 166.00 169.33 166.00 167.67 166.00 166.00
C 160.10 166.14 152.76 165.82 147.00 166.00 C 141.24 166.18 132.94 163.72 135.00 172.00
C 139.33 172.00 143.67 172.00 148.00 172.00
C 148.00 178.33 148.00 184.67 148.00 191.00 Z"/>
</g>
<g fill="None" fill-opacity="0.0" stroke="#AF8FFD" stroke-opacity="1.00" stroke-width="0.3"><path d="
M 154.00 172.00 
C 158.33 172.00 162.67 172.00 167.00 172.00
C 166.67 170.04 167.80 167.24 166.00 166.00
C 166.00 167.67 166.00 169.33 166.00 171.00
C 162.95 172.12 156.04 169.08 154.00 172.00 Z"/>
</g>
<g fill="None" fill-opacity="0.0" stroke="#6D36FA" stroke-opacity="1.00" stroke-width="0.3"><path d="
M 168.00 191.00 
L 198.00 191.00
C 198.00 189.00 198.00 187.00 198.00 185.00
C 190.79 182.95 175.59 189.47 174.00 181.00
C 181.45 178.68 199.11 186.59 198.00 175.00
C 190.71 173.28 177.24 178.61 174.00 172.00
C 181.37 169.76 198.43 177.47 198.00 166.00
C 188.00 166.00 178.00 166.00 168.00 166.00
C 168.00 174.33 168.00 182.67 168.00 191.00 Z"/>
</g>
<g fill="None" fill-opacity="0.0" stroke="#6B33F8" stroke-opacity="1.00" stroke-width="0.3"><path d="
M 206.00 191.00 
L 224.00 191.00
C 227.15 188.63 230.87 185.41 231.00 181.00
C 224.98 181.86 206.14 192.03 205.00 179.00 C 203.86 165.98 224.51 173.93 231.00 175.00
C 229.56 164.01 212.61 163.43 204.25 167.25 C 195.89 171.07 197.91 187.83 206.00 191.00 Z"/>
</g>
<g fill="None" fill-opacity="0.0" stroke="#B59EF8" stroke-opacity="1.00" stroke-width="0.3"><path d="
M 232.00 191.00 
L 233.00 191.00
C 233.00 182.67 233.00 174.33 233.00 166.00
C 230.09 167.84 232.75 174.61 232.00 178.00 C 231.25 181.39 232.57 187.38 232.00 191.00 Z"/>
</g>
<g fill="None" fill-opacity="0.0" stroke="#6824F9" stroke-opacity="1.00" stroke-width="0.3"><path d="
M 233.00 191.00 
L 238.00 191.00
C 238.00 187.67 238.00 184.33 238.00 181.00
C 244.67 181.00 251.33 181.00 258.00 181.00
C 258.00 184.33 258.00 187.67 258.00 191.00
L 264.00 191.00
L 264.00 166.00
C 262.00 166.00 260.00 166.00 258.00 166.00
C 256.94 168.26 259.41 172.99 258.00 175.00
C 256.52 177.11 239.43 177.04 238.00 175.00
C 238.00 172.00 238.00 169.00 238.00 166.00
C 236.69 166.57 234.19 165.25 233.00 166.00
C 233.00 174.33 233.00 182.67 233.00 191.00 Z"/>
</g>
<g fill="None" fill-opacity="0.0" stroke="#FBF9FB" stroke-opacity="1.00" stroke-width="0.3"><path d="
M 24.00 172.00 
C 20.79 170.34 10.82 172.06 7.75 172.75 C 4.69 173.45 4.69 184.19 8.33 184.67 C 11.97 185.15 20.96 185.93 24.23 184.23 C 27.50 182.53 26.75 173.42 24.00 172.00 Z"/>
</g>
<g fill="None" fill-opacity="0.0" stroke="#FCFAFB" stroke-opacity="1.00" stroke-width="0.3"><path d="
M 127.00 182.00 
C 127.44 180.64 127.42 176.37 127.00 175.00
C 123.63 168.49 107.04 170.18 108.00 179.00 C 108.97 187.82 124.00 187.55 127.00 182.00 Z"/>
</g>
<g fill="None" fill-opacity="0.0" stroke="#BD9FFD" stroke-opacity="1.00" stroke-width="0.3"><path d="
M 31.00 183.00 
C 32.00 179.83 32.02 177.23 31.00 174.00
C 31.44 176.45 31.44 180.55 31.00 183.00 Z"/>
</g>
<g fill="None" fill-opacity="0.0" stroke="#B8A2FB" stroke-opacity="1.00" stroke-width="0.3"><path d="
M 127.00 182.00 
C 128.28 179.62 128.25 177.42 127.00 175.00
C 127.42 176.37 127.44 180.64 127.00 182.00 Z"/>
</g>
<g fill="None" fill-opacity="0.0" stroke="#A389F9" stroke-opacity="1.00" stroke-width="0.3"><path d="
M 258.00 175.00 
C 251.33 175.00 244.67 175.00 238.00 175.00
C 239.43 177.04 256.52 177.11 258.00 175.00 Z"/>
</g>
<g fill="None" fill-opacity="0.0" stroke="#FAF6FD" stroke-opacity="1.00" stroke-width="0.3"><path d="
M 238.00 191.00 
L 258.00 191.00
C 258.00 187.67 258.00 184.33 258.00 181.00
C 251.33 181.00 244.67 181.00 238.00 181.00
C 238.00 184.33 238.00 187.67 238.00 191.00 Z"/>
</g>
<g fill="None" fill-opacity="0.0" stroke="#F9EDF7" stroke-opacity="1.00" stroke-width="0.3"><path d="
M 0.00 191.00 
L 8.00 191.00
C 5.03 189.69 1.95 186.86 0.00 184.00
L 0.00 191.00 Z"/>
</g>
<g fill="#FEFDFE" fill-opacity="1.00" stroke="None">
<path d="
M 0.00 174.00 
C 3.68 162.26 27.19 161.94 31.00 174.00
C 32.02 177.23 32.00 179.83 31.00 183.00
C 29.77 186.90 27.55 189.21 24.00 191.00
L 38.00 191.00
C 35.37 189.32 33.54 186.19 33.00 183.00
C 42.42 182.97 41.99 186.84 53.00 185.00 C 64.01 183.16 52.65 180.82 47.00 181.00 C 41.35 181.18 30.73 182.95 33.02 172.98 C 35.32 163.01 63.04 161.32 64.00 173.00
C 55.91 171.78 47.43 171.92 39.00 172.00
C 42.59 178.73 53.52 172.58 60.02 175.98 C 66.53 179.37 65.46 188.59 59.00 191.00
L 66.00 191.00
C 66.57 187.38 65.25 181.39 66.00 178.00 C 66.75 174.61 64.09 167.84 67.00 166.00
C 68.19 165.25 70.69 166.57 72.00 166.00
C 72.00 174.33 72.00 182.67 72.00 191.00
L 86.00 191.00
C 89.02 179.93 80.61 173.16 74.00 166.00
C 81.38 163.66 85.11 170.21 90.00 174.00
C 93.05 168.80 97.16 164.09 104.00 166.00
C 98.59 174.01 88.47 179.57 92.00 191.00
L 109.00 191.00
C 101.81 188.05 98.91 174.70 104.26 169.26 C 109.61 163.81 124.51 163.96 130.25 168.75 C 135.98 173.54 134.13 189.38 126.00 191.00
L 148.00 191.00
C 148.00 184.67 148.00 178.33 148.00 172.00
C 143.67 172.00 139.33 172.00 135.00 172.00
C 132.94 163.72 141.24 166.18 147.00 166.00 C 152.76 165.82 160.10 166.14 166.00 166.00
C 167.80 167.24 166.67 170.04 167.00 172.00
C 162.67 172.00 158.33 172.00 154.00 172.00
C 151.02 176.25 156.23 186.23 154.00 191.00
L 168.00 191.00
C 168.00 182.67 168.00 174.33 168.00 166.00
C 178.00 166.00 188.00 166.00 198.00 166.00
C 198.43 177.47 181.37 169.76 174.00 172.00
C 177.24 178.61 190.71 173.28 198.00 175.00
C 199.11 186.59 181.45 178.68 174.00 181.00
C 175.59 189.47 190.79 182.95 198.00 185.00
C 198.00 187.00 198.00 189.00 198.00 191.00
L 206.00 191.00
C 197.91 187.83 195.89 171.07 204.25 167.25 C 212.61 163.43 229.56 164.01 231.00 175.00
C 224.51 173.93 203.86 165.98 205.00 179.00 C 206.14 192.03 224.98 181.86 231.00 181.00
C 230.87 185.41 227.15 188.63 224.00 191.00
L 232.00 191.00
C 232.57 187.38 231.25 181.39 232.00 178.00 C 232.75 174.61 230.09 167.84 233.00 166.00
C 234.19 165.25 236.69 166.57 238.00 166.00
C 238.00 169.00 238.00 172.00 238.00 175.00
C 244.67 175.00 251.33 175.00 258.00 175.00
C 259.41 172.99 256.94 168.26 258.00 166.00
C 260.00 166.00 262.00 166.00 264.00 166.00
L 264.00 0.00
L 141.00 0.00
C 152.15 7.31 165.74 5.86 177.68 9.32 C 189.62 12.79 184.49 37.87 170.00 35.00 C 155.51 32.12 160.15 14.27 145.93 11.07 C 131.71 7.88 119.86 9.41 107.00 16.00
C 105.62 17.05 103.83 18.76 102.00 20.00
C 100.43 21.68 97.28 22.72 96.00 24.00
C 94.68 25.32 92.12 29.34 91.00 31.00
C 89.39 33.39 86.91 37.57 86.00 40.00
C 84.53 43.93 84.16 48.68 84.00 53.00
C 83.86 56.60 83.76 60.41 84.00 64.00
C 84.31 68.59 85.77 72.65 87.00 77.00
C 83.88 77.17 82.14 80.84 79.00 81.00
C 77.29 74.46 74.16 68.24 75.00 61.00
C 74.72 58.13 73.71 56.04 75.00 53.00
C 75.00 52.50 75.02 51.50 75.00 51.00
C 74.76 44.67 77.62 39.20 80.00 34.00
C 81.33 31.10 82.49 27.79 84.00 25.00
C 86.66 20.07 91.22 14.64 96.00 12.00
C 97.98 10.91 100.09 10.18 102.00 9.00
C 108.43 5.02 115.72 1.56 123.00 0.00
L 0.00 0.00
L 0.00 174.00
M 188.00 70.00 
C 187.18 73.54 186.75 79.57 184.00 82.00
C 183.74 82.23 183.33 82.82 183.00 83.00
C 181.72 85.60 180.58 87.70 179.00 90.00
C 174.56 96.47 170.13 102.94 162.75 106.75 C 155.38 110.56 146.83 115.19 138.00 115.00 C 129.16 114.80 116.84 116.43 109.31 110.69 C 101.77 104.96 91.49 109.48 84.25 103.75 C 77.00 98.02 79.05 86.03 87.23 82.23 C 95.41 78.43 106.80 84.02 106.00 94.00 C 105.20 103.98 120.58 105.72 128.00 106.00
C 130.64 106.10 133.36 106.10 136.00 106.00
C 148.65 105.52 162.98 98.47 171.00 88.00
C 172.31 86.29 175.12 81.85 176.00 80.00
C 176.50 78.94 177.67 75.95 178.00 75.00
C 179.10 71.79 179.73 67.43 180.00 64.00
C 180.39 59.04 180.66 52.92 180.00 48.00
C 179.21 44.81 174.92 41.40 177.00 37.00
C 178.00 37.00 179.00 37.00 180.00 37.00
C 181.46 35.78 183.04 34.05 185.00 34.00
C 190.03 44.70 190.03 58.70 188.00 70.00
M 151.00 45.00 
C 152.29 47.11 153.35 49.65 154.00 52.00
C 154.13 52.46 154.00 53.50 154.00 54.00
C 155.28 57.02 154.63 59.14 154.00 62.00
C 153.84 65.90 152.25 68.26 150.00 71.00
C 136.90 86.94 113.30 81.34 110.00 61.00
C 109.14 55.72 109.84 52.89 112.00 48.00
C 113.54 44.52 114.50 42.41 118.00 40.00
C 118.88 39.39 118.75 39.32 120.00 39.00
C 129.73 32.33 144.20 33.89 151.00 45.00 Z"/>
</g>
<g fill="#54DBF3" fill-opacity="1.00" stroke="None">
<path d="
M 102.00 9.00 
C 103.46 8.93 106.22 13.16 109.00 12.00
C 107.87 15.42 103.54 14.31 103.00 18.00
C 103.92 17.05 105.83 16.60 107.00 16.00
C 119.86 9.41 131.71 7.88 145.93 11.07 C 160.15 14.27 155.51 32.12 170.00 35.00 C 184.49 37.87 189.62 12.79 177.68 9.32 C 165.74 5.86 152.15 7.31 141.00 0.00
L 123.00 0.00
C 115.72 1.56 108.43 5.02 102.00 9.00
M 174.00 14.00 
C 182.21 16.76 176.68 32.38 167.78 28.22 C 158.87 24.06 164.79 10.91 174.00 14.00 Z"/>
</g>
<g fill="#43BCF6" fill-opacity="1.00" stroke="None">
<path d="
M 96.00 12.00 
C 94.84 12.95 94.00 14.96 93.00 16.00
C 92.82 16.09 95.56 16.26 96.00 15.00
C 93.55 18.20 95.22 21.37 96.00 24.00
C 97.28 22.72 100.43 21.68 102.00 20.00
C 102.50 19.46 102.69 18.62 103.00 18.00
C 103.54 14.31 107.87 15.42 109.00 12.00
C 106.22 13.16 103.46 8.93 102.00 9.00
C 100.09 10.18 97.98 10.91 96.00 12.00 Z"/>
</g>
<g fill="#D8F5FE" fill-opacity="1.00" stroke="None">
<path d="
M 84.00 25.00 
C 84.52 24.33 85.45 23.72 86.00 23.00
C 88.05 20.32 90.76 18.33 93.00 16.00
C 94.00 14.96 94.84 12.95 96.00 12.00
C 91.22 14.64 86.66 20.07 84.00 25.00 Z"/>
</g>
<g fill="#F8FBFC" fill-opacity="1.00" stroke="None">
<path d="
M 174.00 14.00 
C 164.79 10.91 158.87 24.06 167.78 28.22 C 176.68 32.38 182.21 16.76 174.00 14.00 Z"/>
</g>
<g fill="#4B9AF7" fill-opacity="1.00" stroke="None">
<path d="
M 93.00 16.00 
C 90.76 18.33 88.05 20.32 86.00 23.00
C 86.70 20.65 87.78 30.60 91.00 31.00
C 92.12 29.34 94.68 25.32 96.00 24.00
C 95.22 21.37 93.55 18.20 96.00 15.00
C 95.56 16.26 92.82 16.09 93.00 16.00 Z"/>
</g>
<g fill="#CEF9FD" fill-opacity="1.00" stroke="None">
<path d="
M 103.00 18.00 
C 102.69 18.62 102.50 19.46 102.00 20.00
C 103.83 18.76 105.62 17.05 107.00 16.00
C 105.83 16.60 103.92 17.05 103.00 18.00 Z"/>
</g>
<g fill="#5780F6" fill-opacity="1.00" stroke="None">
<path d="
M 86.00 23.00 
C 85.45 23.72 84.52 24.33 84.00 25.00
C 82.49 27.79 81.33 31.10 80.00 34.00
C 82.53 33.37 81.90 36.53 82.00 38.00
C 84.10 37.26 86.74 36.42 86.00 40.00
C 86.91 37.57 89.39 33.39 91.00 31.00
C 87.78 30.60 86.70 20.65 86.00 23.00 Z"/>
</g>
<g fill="#6365F8" fill-opacity="1.00" stroke="None">
<path d="
M 75.00 51.00 
C 77.13 54.12 78.00 56.17 80.00 59.00
C 81.53 58.26 80.67 55.23 83.00 55.00
C 83.12 53.99 83.89 53.52 84.00 53.00
C 84.16 48.68 84.53 43.93 86.00 40.00
C 86.74 36.42 84.10 37.26 82.00 38.00
C 81.90 36.53 82.53 33.37 80.00 34.00
C 77.62 39.20 74.76 44.67 75.00 51.00 Z"/>
</g>
<g fill="#6ACDF9" fill-opacity="1.00" stroke="None">
<path d="
M 180.00 37.00 
C 176.64 41.13 179.41 43.54 180.00 48.00
C 180.66 52.92 180.39 59.04 180.00 64.00
C 180.69 66.44 183.71 68.89 184.00 64.00
C 184.04 70.28 184.46 67.90 186.00 64.00
C 185.00 66.62 188.33 67.59 188.00 70.00
C 190.03 58.70 190.03 44.70 185.00 34.00
C 183.04 34.05 181.46 35.78 180.00 37.00 Z"/>
</g>
<g fill="#59C4F3" fill-opacity="1.00" stroke="None">
<path d="
M 120.00 39.00 
C 122.24 38.43 128.80 35.26 126.00 40.00
C 135.21 38.85 144.35 36.46 151.00 45.00
C 144.20 33.89 129.73 32.33 120.00 39.00 Z"/>
</g>
<g fill="#4FB0F9" fill-opacity="1.00" stroke="None">
<path d="
M 120.00 39.00 
C 118.75 39.32 118.88 39.39 118.00 40.00
C 117.18 43.12 126.51 44.00 128.30 46.70 C 130.09 49.39 137.77 47.00 140.25 49.76 C 142.73 52.51 150.90 52.15 154.00 52.00
C 153.35 49.65 152.29 47.11 151.00 45.00
C 144.35 36.46 135.21 38.85 126.00 40.00
C 128.80 35.26 122.24 38.43 120.00 39.00 Z"/>
</g>
<g fill="#B6F1F6" fill-opacity="1.00" stroke="None">
<path d="
M 180.00 48.00 
C 179.41 43.54 176.64 41.13 180.00 37.00
C 179.00 37.00 178.00 37.00 177.00 37.00
C 174.92 41.40 179.21 44.81 180.00 48.00 Z"/>
</g>
<g fill="#599BF9" fill-opacity="1.00" stroke="None">
<path d="
M 112.00 48.00 
C 112.80 46.77 114.38 45.52 115.00 44.00
C 118.46 49.54 126.35 52.49 132.75 55.25 C 139.14 58.02 148.48 62.90 154.00 60.00
C 154.00 58.00 154.00 56.00 154.00 54.00
C 154.00 53.50 154.13 52.46 154.00 52.00
C 150.90 52.15 142.73 52.51 140.25 49.76 C 137.77 47.00 130.09 49.39 128.30 46.70 C 126.51 44.00 117.18 43.12 118.00 40.00
C 114.50 42.41 113.54 44.52 112.00 48.00 Z"/>
</g>
<g fill="#627FFB" fill-opacity="1.00" stroke="None">
<path d="
M 112.00 48.00 
C 109.84 52.89 109.14 55.72 110.00 61.00
C 110.84 50.90 119.65 60.58 126.02 60.98 C 132.40 61.37 138.39 69.40 146.00 68.00
C 145.02 71.97 148.11 69.30 150.00 71.00
C 152.25 68.26 153.84 65.90 154.00 62.00
C 154.02 61.50 154.00 60.50 154.00 60.00
C 148.48 62.90 139.14 58.02 132.75 55.25 C 126.35 52.49 118.46 49.54 115.00 44.00
C 114.38 45.52 112.80 46.77 112.00 48.00 Z"/>
</g>
<g fill="#7047F8" fill-opacity="1.00" stroke="None">
<path d="
M 75.00 53.00 
C 75.00 55.67 75.00 58.33 75.00 61.00
C 74.16 68.24 77.29 74.46 79.00 81.00
C 82.14 80.84 83.88 77.17 87.00 77.00
C 85.77 72.65 84.31 68.59 84.00 64.00
C 83.54 61.45 82.60 58.24 83.00 55.00
C 80.67 55.23 81.53 58.26 80.00 59.00
C 78.00 56.17 77.13 54.12 75.00 51.00
C 75.02 51.50 75.00 52.50 75.00 53.00 Z"/>
</g>
<g fill="#B6ACF7" fill-opacity="1.00" stroke="None">
<path d="
M 75.00 61.00 
C 75.00 58.33 75.00 55.67 75.00 53.00
C 73.71 56.04 74.72 58.13 75.00 61.00 Z"/>
</g>
<g fill="#C9C5F8" fill-opacity="1.00" stroke="None">
<path d="
M 83.00 55.00 
C 82.60 58.24 83.54 61.45 84.00 64.00
C 83.76 60.41 83.86 56.60 84.00 53.00
C 83.89 53.52 83.12 53.99 83.00 55.00 Z"/>
</g>
<g fill="#A7C9FC" fill-opacity="1.00" stroke="None">
<path d="
M 154.00 60.00 
C 154.00 60.50 154.02 61.50 154.00 62.00
C 154.63 59.14 155.28 57.02 154.00 54.00
C 154.00 56.00 154.00 58.00 154.00 60.00 Z"/>
</g>
<g fill="#6A5AFB" fill-opacity="1.00" stroke="None">
<path d="
M 110.00 61.00 
C 113.30 81.34 136.90 86.94 150.00 71.00
C 148.11 69.30 145.02 71.97 146.00 68.00
C 138.39 69.40 132.40 61.37 126.02 60.98 C 119.65 60.58 110.84 50.90 110.00 61.00 Z"/>
</g>
<g fill="#6CAAF8" fill-opacity="1.00" stroke="None">
<path d="
M 178.00 75.00 
C 179.07 77.82 180.87 76.27 183.00 76.00
C 184.40 78.07 184.89 79.68 184.00 82.00
C 186.75 79.57 187.18 73.54 188.00 70.00
C 188.33 67.59 185.00 66.62 186.00 64.00
C 184.46 67.90 184.04 70.28 184.00 64.00
C 183.71 68.89 180.69 66.44 180.00 64.00
C 179.73 67.43 179.10 71.79 178.00 75.00 Z"/>
</g>
<g fill="#678AF9" fill-opacity="1.00" stroke="None">
<path d="
M 176.00 80.00 
C 176.08 82.35 177.07 85.15 180.00 85.00
C 180.44 83.71 181.58 82.79 183.00 83.00
C 183.33 82.82 183.74 82.23 184.00 82.00
C 184.89 79.68 184.40 78.07 183.00 76.00
C 180.87 76.27 179.07 77.82 178.00 75.00
C 177.67 75.95 176.50 78.94 176.00 80.00 Z"/>
</g>
<g fill="#6A6EF8" fill-opacity="1.00" stroke="None">
<path d="
M 171.00 88.00 
C 175.39 86.39 176.48 87.90 175.00 92.00
C 176.54 91.95 177.93 87.97 179.00 90.00
C 180.58 87.70 181.72 85.60 183.00 83.00
C 181.58 82.79 180.44 83.71 180.00 85.00
C 177.07 85.15 176.08 82.35 176.00 80.00
C 175.12 81.85 172.31 86.29 171.00 88.00 Z"/>
</g>
<g fill="#7A2EF8" fill-opacity="1.00" stroke="None">
<path d="
M 179.00 90.00 
C 177.93 87.97 176.54 91.95 175.00 92.00
C 176.48 87.90 175.39 86.39 171.00 88.00
C 162.98 98.47 148.65 105.52 136.00 106.00
C 133.22 106.40 130.72 106.39 128.00 106.00
C 120.58 105.72 105.20 103.98 106.00 94.00 C 106.80 84.02 95.41 78.43 87.23 82.23 C 79.05 86.03 77.00 98.02 84.25 103.75 C 91.49 109.48 101.77 104.96 109.31 110.69 C 116.84 116.43 129.16 114.80 138.00 115.00 C 146.83 115.19 155.38 110.56 162.75 106.75 C 170.13 102.94 174.56 96.47 179.00 90.00
M 94.00 86.00 
C 102.96 86.74 102.91 102.47 92.99 101.99 C 83.07 101.51 84.27 85.19 94.00 86.00 Z"/>
</g>
<g fill="#FAF6FA" fill-opacity="1.00" stroke="None">
<path d="
M 94.00 86.00 
C 84.27 85.19 83.07 101.51 92.99 101.99 C 102.91 102.47 102.96 86.74 94.00 86.00 Z"/>
</g>
<g fill="#C79DFD" fill-opacity="1.00" stroke="None">
<path d="
M 136.00 106.00 
C 133.36 106.10 130.64 106.10 128.00 106.00
C 130.72 106.39 133.22 106.40 136.00 106.00 Z"/>
</g>
<g fill="#682CF8" fill-opacity="1.00" stroke="None">
<path d="
M 0.00 174.00 
L 0.00 184.00
C 1.95 186.86 5.03 189.69 8.00 191.00
L 24.00 191.00
C 27.55 189.21 29.77 186.90 31.00 183.00
C 31.44 180.55 31.44 176.45 31.00 174.00
C 27.19 161.94 3.68 162.26 0.00 174.00
M 24.00 172.00 
C 26.75 173.42 27.50 182.53 24.23 184.23 C 20.96 185.93 11.97 185.15 8.33 184.67 C 4.69 184.19 4.69 173.45 7.75 172.75 C 10.82 172.06 20.79 170.34 24.00 172.00 Z"/>
</g>
<g fill="#6B33F9" fill-opacity="1.00" stroke="None">
<path d="
M 38.00 191.00 
L 59.00 191.00
C 65.46 188.59 66.53 179.37 60.02 175.98 C 53.52 172.58 42.59 178.73 39.00 172.00
C 47.43 171.92 55.91 171.78 64.00 173.00
C 63.04 161.32 35.32 163.01 33.02 172.98 C 30.73 182.95 41.35 181.18 47.00 181.00 C 52.65 180.82 64.01 183.16 53.00 185.00 C 41.99 186.84 42.42 182.97 33.00 183.00
C 33.54 186.19 35.37 189.32 38.00 191.00 Z"/>
</g>
<g fill="#A98DFA" fill-opacity="1.00" stroke="None">
<path d="
M 66.00 191.00 
L 67.00 191.00
C 67.00 182.67 67.00 174.33 67.00 166.00
C 64.09 167.84 66.75 174.61 66.00 178.00 C 65.25 181.39 66.57 187.38 66.00 191.00 Z"/>
</g>
<g fill="#661DFA" fill-opacity="1.00" stroke="None">
<path d="
M 67.00 191.00 
L 72.00 191.00
C 72.00 182.67 72.00 174.33 72.00 166.00
C 70.69 166.57 68.19 165.25 67.00 166.00
C 67.00 174.33 67.00 182.67 67.00 191.00 Z"/>
</g>
<g fill="#6A2FF7" fill-opacity="1.00" stroke="None">
<path d="
M 86.00 191.00 
L 92.00 191.00
C 88.47 179.57 98.59 174.01 104.00 166.00
C 97.16 164.09 93.05 168.80 90.00 174.00
C 85.11 170.21 81.38 163.66 74.00 166.00
C 80.61 173.16 89.02 179.93 86.00 191.00 Z"/>
</g>
<g fill="#6A2EF9" fill-opacity="1.00" stroke="None">
<path d="
M 109.00 191.00 
L 126.00 191.00
C 134.13 189.38 135.98 173.54 130.25 168.75 C 124.51 163.96 109.61 163.81 104.26 169.26 C 98.91 174.70 101.81 188.05 109.00 191.00
M 127.00 175.00 
C 128.25 177.42 128.28 179.62 127.00 182.00
C 124.00 187.55 108.97 187.82 108.00 179.00 C 107.04 170.18 123.63 168.49 127.00 175.00 Z"/>
</g>
<g fill="#692FFB" fill-opacity="1.00" stroke="None">
<path d="
M 148.00 191.00 
L 154.00 191.00
C 156.23 186.23 151.02 176.25 154.00 172.00
C 156.04 169.08 162.95 172.12 166.00 171.00
C 166.00 169.33 166.00 167.67 166.00 166.00
C 160.10 166.14 152.76 165.82 147.00 166.00 C 141.24 166.18 132.94 163.72 135.00 172.00
C 139.33 172.00 143.67 172.00 148.00 172.00
C 148.00 178.33 148.00 184.67 148.00 191.00 Z"/>
</g>
<g fill="#AF8FFD" fill-opacity="1.00" stroke="None">
<path d="
M 154.00 172.00 
C 158.33 172.00 162.67 172.00 167.00 172.00
C 166.67 170.04 167.80 167.24 166.00 166.00
C 166.00 167.67 166.00 169.33 166.00 171.00
C 162.95 172.12 156.04 169.08 154.00 172.00 Z"/>
</g>
<g fill="#6D36FA" fill-opacity="1.00" stroke="None">
<path d="
M 168.00 191.00 
L 198.00 191.00
C 198.00 189.00 198.00 187.00 198.00 185.00
C 190.79 182.95 175.59 189.47 174.00 181.00
C 181.45 178.68 199.11 186.59 198.00 175.00
C 190.71 173.28 177.24 178.61 174.00 172.00
C 181.37 169.76 198.43 177.47 198.00 166.00
C 188.00 166.00 178.00 166.00 168.00 166.00
C 168.00 174.33 168.00 182.67 168.00 191.00 Z"/>
</g>
<g fill="#6B33F8" fill-opacity="1.00" stroke="None">
<path d="
M 206.00 191.00 
L 224.00 191.00
C 227.15 188.63 230.87 185.41 231.00 181.00
C 224.98 181.86 206.14 192.03 205.00 179.00 C 203.86 165.98 224.51 173.93 231.00 175.00
C 229.56 164.01 212.61 163.43 204.25 167.25 C 195.89 171.07 197.91 187.83 206.00 191.00 Z"/>
</g>
<g fill="#B59EF8" fill-opacity="1.00" stroke="None">
<path d="
M 232.00 191.00 
L 233.00 191.00
C 233.00 182.67 233.00 174.33 233.00 166.00
C 230.09 167.84 232.75 174.61 232.00 178.00 C 231.25 181.39 232.57 187.38 232.00 191.00 Z"/>
</g>
<g fill="#6824F9" fill-opacity="1.00" stroke="None">
<path d="
M 233.00 191.00 
L 238.00 191.00
C 238.00 187.67 238.00 184.33 238.00 181.00
C 244.67 181.00 251.33 181.00 258.00 181.00
C 258.00 184.33 258.00 187.67 258.00 191.00
L 264.00 191.00
L 264.00 166.00
C 262.00 166.00 260.00 166.00 258.00 166.00
C 256.94 168.26 259.41 172.99 258.00 175.00
C 256.52 177.11 239.43 177.04 238.00 175.00
C 238.00 172.00 238.00 169.00 238.00 166.00
C 236.69 166.57 234.19 165.25 233.00 166.00
C 233.00 174.33 233.00 182.67 233.00 191.00 Z"/>
</g>
<g fill="#FBF9FB" fill-opacity="1.00" stroke="None">
<path d="
M 24.00 172.00 
C 20.79 170.34 10.82 172.06 7.75 172.75 C 4.69 173.45 4.69 184.19 8.33 184.67 C 11.97 185.15 20.96 185.93 24.23 184.23 C 27.50 182.53 26.75 173.42 24.00 172.00 Z"/>
</g>
<g fill="#FCFAFB" fill-opacity="1.00" stroke="None">
<path d="
M 127.00 182.00 
C 127.44 180.64 127.42 176.37 127.00 175.00
C 123.63 168.49 107.04 170.18 108.00 179.00 C 108.97 187.82 124.00 187.55 127.00 182.00 Z"/>
</g>
<g fill="#BD9FFD" fill-opacity="1.00" stroke="None">
<path d="
M 31.00 183.00 
C 32.00 179.83 32.02 177.23 31.00 174.00
C 31.44 176.45 31.44 180.55 31.00 183.00 Z"/>
</g>
<g fill="#B8A2FB" fill-opacity="1.00" stroke="None">
<path d="
M 127.00 182.00 
C 128.28 179.62 128.25 177.42 127.00 175.00
C 127.42 176.37 127.44 180.64 127.00 182.00 Z"/>
</g>
<g fill="#A389F9" fill-opacity="1.00" stroke="None">
<path d="
M 258.00 175.00 
C 251.33 175.00 244.67 175.00 238.00 175.00
C 239.43 177.04 256.52 177.11 258.00 175.00 Z"/>
</g>
<g fill="#FAF6FD" fill-opacity="1.00" stroke="None">
<path d="
M 238.00 191.00 
L 258.00 191.00
C 258.00 187.67 258.00 184.33 258.00 181.00
C 251.33 181.00 244.67 181.00 238.00 181.00
C 238.00 184.33 238.00 187.67 238.00 191.00 Z"/>
</g>
<g fill="#F9EDF7" fill-opacity="1.00" stroke="None">
<path d="
M 0.00 191.00 
L 8.00 191.00
C 5.03 189.69 1.95 186.86 0.00 184.00
L 0.00 191.00 Z"/>
</g>
</svg>